# Blender v2.78 (sub 0) OBJ File: 'z_masztem.blend'
# www.blender.org
v -1.320780 2.907673 0.353571
v 0.455619 -1.268166 0.671701
v -1.524618 3.176873 -0.416095
v 0.546002 -1.688020 -0.027585
v -1.269846 2.087514 0.496000
v -1.164370 1.291574 0.563205
v -0.901765 0.577752 0.613894
v -0.549273 -0.089671 0.645761
v -0.103912 -0.708847 0.663199
v -1.466426 2.218016 -0.290315
v -1.342260 1.293806 -0.168759
v -1.036227 0.461987 -0.109361
v -0.625433 -0.315729 -0.071497
v -0.106354 -1.037056 -0.048290
v -1.234143 2.953142 0.347562
v 1.225344 -0.864193 0.618312
v -1.423657 3.229860 -0.423098
v 1.442991 -1.217254 -0.089801
v -0.574913 2.452234 0.447799
v 0.025647 1.916128 0.480664
v 0.468755 1.297039 0.518834
v 0.821247 0.629616 0.550701
v 1.080410 -0.087282 0.581053
v -0.656595 2.643038 -0.346486
v 0.044513 2.021623 -0.264946
v 0.560892 1.300200 -0.220138
v 0.971686 0.522483 -0.182275
v 1.273782 -0.312722 -0.144017
v -1.277462 2.930407 0.350563
v 0.950953 -1.274951 0.658001
v -1.474157 3.203318 -0.420251
v 1.051078 -1.559596 -0.052259
v -0.916607 2.285233 0.671347
v -0.562412 1.622340 0.762034
v -0.209429 0.956221 0.810832
v 0.143012 0.288660 0.840911
v 0.495129 -0.379760 0.859824
v -1.275107 2.845429 0.349417
v 0.433683 -1.196805 0.657047
v -1.463536 3.094079 -0.410170
v 0.517375 -1.593253 -0.036795
v -1.225803 2.049258 0.493843
v -1.121596 1.267784 0.553571
v -0.868787 0.580021 0.601327
v -0.528262 -0.064847 0.631952
v -0.097137 -0.664404 0.648643
v -1.402971 2.163705 -0.284880
v -1.283095 1.262471 -0.166831
v -0.989947 0.466583 -0.111237
v -0.595888 -0.279639 -0.075219
v -0.096687 -0.973412 -0.053368
v -1.209238 2.879999 0.344848
v 1.177581 -0.806386 0.605450
v -1.389474 3.132949 -0.415307
v 1.380390 -1.140319 -0.096654
v -0.568543 2.394207 0.448254
v 0.020061 1.866958 0.474384
v 0.446993 1.270579 0.510063
v 0.787586 0.625747 0.540683
v 1.038586 -0.068344 0.569869
v -0.647151 2.560380 -0.337304
v 0.037150 1.955373 -0.258405
v 0.530903 1.264768 -0.216725
v 0.925083 0.518609 -0.180715
v 1.215617 -0.284678 -0.144390
v -1.243231 2.864531 0.345612
v 0.916155 -1.210582 0.643382
v -1.423351 3.107505 -0.412741
v 1.000247 -1.463848 -0.060611
v 0.489006 -0.396050 0.648285
v 0.136888 0.272369 0.629356
v -0.215553 0.939928 0.599251
v -0.568537 1.606044 0.550416
v -0.922735 2.268931 0.459644
v 0.805688 -1.001800 0.630502
v -1.243231 2.864531 0.345612
v 1.038586 -0.068344 0.569869
v 0.787586 0.625747 0.540683
v 0.446993 1.270579 0.510063
v 0.020061 1.866958 0.474384
v -0.568543 2.394207 0.448254
v 1.177581 -0.806386 0.605450
v -1.209238 2.879999 0.344848
v -0.097137 -0.664404 0.648643
v -0.528262 -0.064847 0.631952
v -1.275107 2.845429 0.349417
v 0.433683 -1.196805 0.657047
v -1.225803 2.049258 0.493843
v -1.121596 1.267784 0.553571
v -0.868787 0.580021 0.601327
v 0.005287 1.880191 0.473728
v -1.124212 1.287398 0.552071
v -0.920557 0.389188 -5.007172
v -0.025080 1.907393 0.472380
v -1.129588 1.327716 0.548990
v -0.938831 0.423388 -5.011855
v -0.037453 1.918477 0.471831
v -1.131779 1.344144 0.547734
v -0.603146 1.670816 0.541547
v -1.244455 2.863797 0.345758
v 0.791407 -1.009286 0.631521
v -0.934368 2.260498 0.460957
v -0.589767 1.593059 0.550537
v -0.240629 0.926112 0.599331
v 0.111355 0.259425 0.629455
v 0.466506 -0.406351 0.648299
v -0.598416 1.609811 0.548289
v -0.616195 1.644245 0.543667
v -0.623439 1.658276 0.541784
v 0.543341 -0.363651 0.640533
v 0.201220 0.307307 0.620589
v -0.150050 0.972618 0.590433
v -0.510344 1.631840 0.542899
v -0.887717 2.281316 0.458518
v 0.842455 -0.982480 0.628025
v -1.239871 2.866060 0.345536
v -0.862947 0.414647 -5.014528
v -0.882416 0.448155 -5.018882
v -0.547218 1.695302 0.534654
v -1.238357 2.866749 0.345502
v 0.567809 -0.349061 0.637041
v 0.230190 0.323039 0.616641
v -0.120553 0.987339 0.586463
v -0.484139 1.643456 0.539514
v -0.871948 2.286894 0.458011
v 0.859013 -0.973780 0.626910
v -0.493873 1.659605 0.537469
v -0.513880 1.692801 0.533264
v -0.522033 1.706328 0.531550
vt 0.2937 0.1824
vt 0.2050 0.1207
vt 0.2050 0.1824
vt 0.9536 0.3169
vt 0.9420 0.4387
vt 0.9436 0.3169
vt -0.1660 0.5451
vt -0.3143 0.3340
vt -0.0928 0.3340
vt 0.7372 0.1754
vt 0.6485 0.1824
vt 0.7372 0.1824
vt 0.6485 0.1267
vt 0.5598 0.1824
vt 0.5598 0.0870
vt 0.4711 0.1824
vt 0.4711 0.0725
vt 0.3824 0.1824
vt 0.2937 0.0875
vt 1.0144 0.3340
vt 0.8662 0.5451
vt 0.7930 0.3340
vt 0.6081 0.5451
vt 0.5715 0.3340
vt 0.3501 0.5451
vt 0.3501 0.3340
vt 0.1286 0.3340
vt 0.0920 0.5451
vt 1.1099 0.6410
vt 0.8571 0.3436
vt 1.0740 0.3436
vt 0.2937 0.7968
vt 0.2050 0.7351
vt 0.2937 0.7019
vt 0.9653 0.4387
vt 0.9536 0.4387
vt -0.2154 0.4143
vt -0.0699 0.6215
vt 0.0020 0.4143
vt 0.6485 0.7968
vt 0.7372 0.7898
vt 0.7372 0.7968
vt 0.5598 0.7968
vt 0.6485 0.7411
vt 0.4711 0.7968
vt 0.5598 0.7014
vt 0.3824 0.7968
vt 0.4711 0.6870
vt 0.3824 0.6870
vt 1.0887 0.4143
vt 0.9433 0.6215
vt 1.1965 0.6215
vt 0.8714 0.4143
vt 0.6900 0.6215
vt 0.6540 0.4143
vt 0.4367 0.6215
vt 0.2193 0.4143
vt 0.4367 0.4143
vt 0.1834 0.6215
vt 0.6042 0.6410
vt 0.6401 0.3436
vt 0.9436 0.3169
vt 0.9536 0.4387
vt 0.9536 0.3169
vt -0.3143 0.3340
vt -0.1660 0.5451
vt -0.0928 0.3340
vt 0.8662 0.5451
vt 1.0144 0.3340
vt 0.7930 0.3340
vt 0.6081 0.5451
vt 0.5715 0.3340
vt 0.3501 0.5451
vt 0.3501 0.3340
vt 0.1286 0.3340
vt 0.0920 0.5451
vt 0.8571 0.4416
vt 0.9433 0.5431
vt 0.9311 0.4416
vt 0.9636 0.3169
vt 0.0067 0.8811
vt -0.1388 0.6739
vt 0.0785 0.6739
vt 1.0198 0.8811
vt 1.1653 0.6739
vt 1.2731 0.8811
vt 0.7665 0.8811
vt 0.9479 0.6739
vt 0.5132 0.8811
vt 0.7306 0.6739
vt 0.2959 0.6739
vt 0.5132 0.6739
vt 0.2599 0.8811
vt 0.7708 0.5431
vt 0.7831 0.4416
vt 1.0513 0.1507
vt 1.0201 0.1334
vt 1.0523 0.1292
vt -0.3029 -0.2071
vt -0.5504 -0.1103
vt -0.5797 -0.1187
vt 0.7815 -0.0340
vt 0.7567 -0.0237
vt 0.5126 -0.1674
vt 0.4948 -0.1543
vt 0.2431 -0.2254
vt 0.2369 -0.2097
vt -0.0239 -0.2229
vt -0.0287 -0.2391
vt -0.2877 -0.1921
vt -0.5561 0.0718
vt -0.5893 0.0702
vt 1.0185 0.1649
vt 1.0173 0.1490
vt -0.3319 0.3747
vt -0.5686 0.2536
vt -0.3153 0.3612
vt 0.7644 0.3092
vt 1.0501 0.1722
vt 0.4834 0.4167
vt 0.7407 0.2965
vt 0.2095 0.4474
vt 0.4670 0.4018
vt -0.0559 0.4182
vt 0.2049 0.4311
vt -0.0623 0.4339
vt -0.5986 0.2593
vt -0.4241 0.5451
vt 0.3824 0.0725
vt 1.1243 0.5451
vt 0.8571 0.6410
vt 0.2050 0.7968
vt 0.9636 0.3169
vt -0.3232 0.6215
vt 0.9420 0.4387
vt -0.4241 0.5451
vt 1.1243 0.5451
vt 0.8571 0.5431
vt 0.9653 0.4387
vt -0.2466 0.8811
vt 1.6186 0.9702
vt 1.2476 0.8490
vt 1.6186 0.7141
vt -0.3301 0.6843
vt -0.7046 0.5034
vt -0.7052 0.4807
vt -0.2805 0.7051
vt -0.3157 0.9106
vt 0.4598 0.9110
vt 0.0774 1.2441
vt 0.0667 0.8511
vt 0.8535 0.9110
vt 0.4632 1.3640
vt 1.2378 1.2400
vt 1.6186 0.2019
vt 1.2574 0.4580
vt 1.2476 0.0670
vt -0.7052 0.4353
vt -0.3445 0.4580
vt -0.7058 0.4580
vt -0.1317 0.1483
vt 0.0560 0.4580
vt -0.1442 0.4580
vt 0.0667 0.0650
vt 0.4564 0.4580
vt 0.4598 0.0050
vt 0.8569 0.4580
vt 0.8535 0.0050
vt -0.2309 0.1900
vt -0.2444 0.4580
vt -0.1192 1.0773
vt -0.1317 0.7677
vt -0.2944 0.4580
vt -0.2805 0.2109
vt -0.2174 0.9940
vt -0.2309 0.7260
vt -0.3301 0.2317
vt -0.2666 0.9523
vt 1.6187 0.4580
vt -0.3229 0.1186
vt -0.2242 0.0560
vt -0.2736 0.0873
vt -0.1254 -0.0065
vt 1.2427 -0.1285
vt 0.8518 -0.2215
vt 0.4615 -0.2215
vt 0.0721 -0.1316
vt -0.7049 0.4240
vt 1.6186 0.0738
vt 1.6186 -0.0542
vt 1.2378 -0.3240
vt -0.7046 0.4126
vt -0.1192 -0.1613
vt 0.0774 -0.3281
vt 0.4632 -0.4480
vt 0.8501 -0.4480
vt -0.2174 -0.0779
vt -0.2666 -0.0363
vt -0.3157 0.0054
vt 0.8501 1.3640
vn 0.0242 -0.2081 0.9778
vn -0.4051 0.8243 0.3956
vn -0.6742 -0.6697 0.3113
vn -0.1355 0.3793 0.9153
vn -0.4019 -0.0901 0.9112
vn -0.2751 -0.0755 0.9585
vn -0.2325 -0.0791 0.9694
vn -0.2561 -0.1077 0.9606
vn -0.9707 -0.0187 0.2396
vn -0.9661 -0.1082 0.2345
vn -0.9200 -0.3226 0.2227
vn -0.8646 -0.4456 0.2321
vn -0.7874 -0.5590 0.2598
vn 0.0025 -0.8572 0.5150
vn 0.3798 0.1149 0.9179
vn -0.4097 0.8220 0.3956
vn 0.9619 0.1889 0.1978
vn -0.1356 0.3792 0.9153
vn 0.3985 0.3300 0.8557
vn 0.3204 0.2370 0.9171
vn 0.3006 0.2007 0.9324
vn 0.3214 0.1557 0.9341
vn 0.5929 0.7932 0.1390
vn 0.6516 0.7500 0.1132
vn 0.8058 0.5832 0.1029
vn 0.8766 0.4683 0.1113
vn 0.9292 0.3419 0.1407
vn 0.7572 -0.4611 0.4626
vn 0.4454 -0.8165 -0.3674
vn 0.6789 0.6722 -0.2954
vn 0.9755 0.0207 -0.2189
vn 0.9694 0.1126 -0.2181
vn 0.9226 0.3246 -0.2085
vn 0.8671 0.4475 -0.2187
vn 0.7902 0.5613 -0.2461
vn 0.0108 0.8688 -0.4951
vn 0.3792 -0.8512 -0.3628
vn -0.9648 -0.1904 -0.1814
vn -0.5982 -0.7921 -0.1217
vn -0.6534 -0.7512 -0.0935
vn -0.8077 -0.5828 -0.0892
vn -0.8781 -0.4684 -0.0976
vn -0.9311 -0.3420 -0.1267
vn -0.7720 0.4579 -0.4408
vn -0.0322 -0.0950 -0.9950
vn -0.0923 -0.1239 -0.9880
vn -0.0310 -0.1354 -0.9903
vn -0.0392 -0.1349 -0.9901
vn -0.0323 -0.0815 -0.9962
vn -0.0403 -0.0698 -0.9967
vn -0.0544 -0.0712 -0.9960
vn -0.0234 -0.0992 -0.9948
vn -0.0120 -0.0845 -0.9964
vn -0.0225 -0.0600 -0.9979
vn 0.0524 -0.0617 -0.9967
vn 0.0197 -0.1082 -0.9939
vn -0.0441 -0.0933 -0.9947
vn -0.0349 -0.0665 -0.9972
vn -0.0288 -0.0555 -0.9980
vn -0.0112 -0.0977 -0.9951
vn -0.2082 -0.1937 0.9587
vn -0.4007 0.8267 0.3950
vn -0.6758 -0.6672 0.3133
vn -0.4941 0.1189 0.8613
vn -0.3311 0.0357 0.9429
vn -0.2598 -0.0270 0.9653
vn -0.2318 -0.0761 0.9698
vn -0.2072 -0.1217 0.9707
vn -0.9686 -0.0263 0.2473
vn -0.9690 -0.1005 0.2256
vn -0.9200 -0.3226 0.2226
vn -0.8647 -0.4454 0.2322
vn -0.7877 -0.5584 0.2603
vn 0.2447 -0.8876 0.3902
vn 0.2630 -0.0828 0.9612
vn -0.4052 0.8242 0.3956
vn 0.9609 0.1917 0.1998
vn 0.2736 0.5218 0.8080
vn 0.2590 0.3454 0.9020
vn 0.2728 0.2525 0.9283
vn 0.2978 0.2018 0.9331
vn 0.3364 0.2032 0.9195
vn 0.5870 0.7988 0.1315
vn 0.6573 0.7437 0.1219
vn 0.8058 0.5831 0.1030
vn 0.8765 0.4684 0.1114
vn 0.9289 0.3424 0.1412
vn 0.6324 -0.6841 0.3633
vn 0.2748 -0.8915 -0.3600
vn 0.6819 0.6675 -0.2992
vn 0.9725 0.0322 -0.2307
vn 0.9731 0.1024 -0.2063
vn 0.9223 0.3251 -0.2091
vn 0.8672 0.4474 -0.2188
vn 0.7903 0.5609 -0.2464
vn -0.2583 0.8988 -0.3542
vn 0.5374 -0.7537 -0.3782
vn -0.9630 -0.1958 -0.1851
vn -0.5891 -0.8005 -0.1104
vn -0.6609 -0.7431 -0.1051
vn -0.8074 -0.5833 -0.0886
vn -0.8780 -0.4686 -0.0978
vn -0.9309 -0.3424 -0.1270
vn -0.6300 0.7037 -0.3284
vn -0.0320 -0.0949 -0.9950
vn -0.0463 -0.0725 -0.9963
vn -0.0869 -0.1348 -0.9871
vn -0.0301 -0.1343 -0.9905
vn -0.0065 -0.0736 -0.9973
vn -0.0339 -0.0660 -0.9972
vn -0.0464 -0.0648 -0.9968
vn -0.0214 -0.1031 -0.9944
vn -0.0119 -0.0843 -0.9964
vn 0.0464 -0.0511 -0.9976
vn 0.0211 -0.1080 -0.9939
vn 0.0254 -0.1010 -0.9946
vn -0.0230 -0.0766 -0.9968
vn -0.0281 -0.0634 -0.9976
vn -0.0189 -0.0526 -0.9984
vn -0.0133 -0.0939 -0.9955
vn -0.0669 -0.0083 -0.9977
vn -0.0037 -0.1894 -0.9819
vn -0.0112 -0.1387 -0.9903
vn 0.0295 -0.0576 -0.9979
vn 0.0168 -0.0363 -0.9992
vn 0.0099 -0.0230 -0.9997
vn -0.1192 -0.0376 -0.9922
vn 0.0512 -0.1611 -0.9856
vn 0.4164 -0.8933 0.1692
vn -0.0775 -0.1137 -0.9905
vn -0.0880 -0.0912 -0.9919
vn -0.0934 -0.0771 -0.9926
vn -0.0514 -0.1624 -0.9854
vn 0.0566 -0.1040 -0.9930
vn -0.4129 0.8937 -0.1758
vn 0.0545 -0.1051 -0.9930
vn 0.0136 -0.1285 -0.9916
vn 0.0536 -0.1056 -0.9930
vn -0.5205 0.8393 -0.1571
vn -0.8804 -0.4499 0.1499
vn -0.1374 -0.9657 0.2202
vn 0.0099 -0.0231 -0.9997
vn 0.0168 -0.0362 -0.9992
vn 0.0295 -0.0575 -0.9979
vn -0.0097 -0.1407 -0.9900
vn -0.0034 -0.1898 -0.9818
vn -0.0679 -0.0062 -0.9977
vn 0.0114 -0.1223 -0.9924
vn -0.0529 -0.1568 -0.9862
vn 0.8536 0.4933 -0.1672
vn -0.0879 -0.0914 -0.9919
vn -0.0775 -0.1138 -0.9905
vn 0.8634 -0.5014 0.0550
vn 0.0507 -0.1600 -0.9858
vn -0.1183 -0.0390 -0.9922
vn -0.1017 -0.0670 -0.9926
vn 0.0504 -0.1594 -0.9859
vn -0.0558 -0.1585 -0.9858
vn -0.0879 -0.0915 -0.9919
vn -0.0941 -0.0758 -0.9927
vn -0.0538 -0.1573 -0.9861
vn 0.0103 -0.1195 -0.9928
vn 0.0045 -0.0113 -0.9999
vn 0.0176 -0.1774 -0.9840
vn 0.0327 -0.0718 -0.9969
vn 0.0291 -0.0586 -0.9979
vn 0.0159 -0.0391 -0.9991
vn 0.0075 -0.0225 -0.9997
vn -0.0648 -0.0046 -0.9979
vn 0.0294 -0.1725 -0.9846
vn 0.4176 -0.8928 0.1690
vn -0.0768 -0.1134 -0.9906
vn -0.0861 -0.0904 -0.9922
vn -0.0950 -0.0782 -0.9924
vn -0.0551 -0.1601 -0.9856
vn 0.0378 -0.0711 -0.9967
vn -0.4140 0.8932 -0.1756
vn 0.0366 -0.0713 -0.9968
vn -0.0522 -0.1584 -0.9860
vn 0.0339 -0.0717 -0.9969
vn -0.8868 -0.4380 0.1478
vn -0.8867 -0.4380 0.1478
vn 0.0576 -0.1035 -0.9930
vn 0.0082 -0.0239 -0.9997
vn 0.0150 -0.0372 -0.9992
vn 0.0288 -0.0580 -0.9979
vn 0.0183 -0.1784 -0.9838
vn -0.0107 0.0220 -0.9997
vn 0.0637 0.9729 -0.2223
vn 0.8620 0.4794 -0.1648
vn -0.0951 -0.0780 -0.9924
vn -0.0861 -0.0905 -0.9922
vn -0.0767 -0.1134 -0.9906
vn -0.0568 -0.1591 -0.9856
vn 0.0293 -0.1725 -0.9846
vn -0.0621 -0.0098 -0.9980
vn -0.0608 -0.0122 -0.9981
vn 0.0290 -0.1714 -0.9848
vn -0.0709 -0.1282 -0.9892
vn -0.0765 -0.1140 -0.9905
vn -0.0852 -0.0921 -0.9921
vn -0.0951 -0.0779 -0.9924
vn -0.0701 -0.1273 -0.9894
vn -0.0683 -0.1253 -0.9898
vn -0.0675 -0.1244 -0.9899
s off
f 37/1/1 2/2/1 30/3/1
f 29/4/2 3/5/2 1/6/2
f 14/7/3 2/8/3 9/9/3
f 1/10/4 33/11/4 29/12/4
f 5/13/5 34/14/5 33/11/5
f 6/15/6 35/16/6 34/14/6
f 7/17/7 36/18/7 35/16/7
f 36/18/8 9/19/8 37/1/8
f 1/20/9 10/21/9 5/22/9
f 5/22/10 11/23/10 6/24/10
f 6/24/11 12/25/11 7/26/11
f 12/25/12 8/27/12 7/26/12
f 13/28/13 9/9/13 8/27/13
f 4/29/14 30/30/14 2/31/14
f 37/32/15 16/33/15 23/34/15
f 29/4/16 17/35/16 31/36/16
f 16/37/17 28/38/17 23/39/17
f 33/40/18 15/41/18 29/42/18
f 34/43/19 19/44/19 33/40/19
f 35/45/20 20/46/20 34/43/20
f 36/47/21 21/48/21 35/45/21
f 36/47/22 23/34/22 22/49/22
f 15/50/23 24/51/23 17/52/23
f 19/53/24 25/54/24 24/51/24
f 20/55/25 26/56/25 25/54/25
f 22/57/26 26/56/26 21/58/26
f 23/39/27 27/59/27 22/57/27
f 30/30/28 18/60/28 16/61/28
f 38/62/29 68/63/29 66/64/29
f 39/65/30 51/66/30 46/67/30
f 47/68/31 38/69/31 42/70/31
f 48/71/32 42/70/32 43/72/32
f 49/73/33 43/72/33 44/74/33
f 45/75/34 49/73/34 44/74/34
f 46/67/35 50/76/35 45/75/35
f 67/77/36 41/78/36 39/79/36
f 68/63/37 52/80/37 66/64/37
f 65/81/38 53/82/38 60/83/38
f 61/84/39 52/85/39 54/86/39
f 62/87/40 56/88/40 61/84/40
f 63/89/41 57/90/41 62/87/41
f 63/89/42 59/91/42 58/92/42
f 64/93/43 60/83/43 59/91/43
f 55/94/44 67/77/44 53/95/44
f 31/96/45 40/97/45 3/98/45
f 14/99/46 41/100/46 4/101/46
f 10/102/47 40/97/47 47/103/47
f 11/104/48 47/103/48 48/105/48
f 12/106/49 48/105/49 49/107/49
f 12/106/50 50/108/50 13/109/50
f 13/109/51 51/110/51 14/99/51
f 4/101/52 69/111/52 32/112/52
f 31/96/53 54/113/53 68/114/53
f 28/115/54 55/116/54 65/117/54
f 24/118/55 54/113/55 17/119/55
f 25/120/56 61/121/56 24/118/56
f 26/122/57 62/123/57 25/120/57
f 26/122/58 64/124/58 63/125/58
f 27/126/59 65/117/59 64/124/59
f 18/127/60 69/111/60 55/116/60
f 37/1/61 9/19/61 2/2/61
f 29/4/62 31/36/62 3/5/62
f 14/7/63 4/128/63 2/8/63
f 1/10/64 5/13/64 33/11/64
f 5/13/65 6/15/65 34/14/65
f 6/15/66 7/17/66 35/16/66
f 7/17/67 8/129/67 36/18/67
f 36/18/68 8/129/68 9/19/68
f 1/20/69 3/130/69 10/21/69
f 5/22/70 10/21/70 11/23/70
f 6/24/71 11/23/71 12/25/71
f 12/25/72 13/28/72 8/27/72
f 13/28/73 14/7/73 9/9/73
f 4/29/74 32/131/74 30/30/74
f 37/32/75 30/132/75 16/33/75
f 29/4/76 15/133/76 17/35/76
f 16/37/77 18/134/77 28/38/77
f 33/40/78 19/44/78 15/41/78
f 34/43/79 20/46/79 19/44/79
f 35/45/80 21/48/80 20/46/80
f 36/47/81 22/49/81 21/48/81
f 36/47/82 37/32/82 23/34/82
f 15/50/83 19/53/83 24/51/83
f 19/53/84 20/55/84 25/54/84
f 20/55/85 21/58/85 26/56/85
f 22/57/86 27/59/86 26/56/86
f 23/39/87 28/38/87 27/59/87
f 30/30/88 32/131/88 18/60/88
f 38/62/89 40/135/89 68/63/89
f 39/65/90 41/136/90 51/66/90
f 47/68/91 40/137/91 38/69/91
f 48/71/92 47/68/92 42/70/92
f 49/73/93 48/71/93 43/72/93
f 45/75/94 50/76/94 49/73/94
f 46/67/95 51/66/95 50/76/95
f 67/77/96 69/138/96 41/78/96
f 68/63/97 54/139/97 52/80/97
f 65/81/98 55/140/98 53/82/98
f 61/84/99 56/88/99 52/85/99
f 62/87/100 57/90/100 56/88/100
f 63/89/101 58/92/101 57/90/101
f 63/89/102 64/93/102 59/91/102
f 64/93/103 65/81/103 60/83/103
f 55/94/104 69/138/104 67/77/104
f 31/96/105 68/114/105 40/97/105
f 14/99/106 51/110/106 41/100/106
f 10/102/107 3/98/107 40/97/107
f 11/104/108 10/102/108 47/103/108
f 12/106/109 11/104/109 48/105/109
f 12/106/110 49/107/110 50/108/110
f 13/109/111 50/108/111 51/110/111
f 4/101/112 41/100/112 69/111/112
f 31/96/113 17/119/113 54/113/113
f 28/115/114 18/127/114 55/116/114
f 24/118/115 61/121/115 54/113/115
f 25/120/116 62/123/116 61/121/116
f 26/122/117 63/125/117 62/123/117
f 26/122/118 27/126/118 64/124/118
f 27/126/119 28/115/119 65/117/119
f 18/127/120 32/112/120 69/111/120
f 87/141/121 106/142/121 101/143/121
f 102/144/122 86/145/122 100/146/122
f 109/147/123 88/148/123 102/144/123
f 104/149/124 89/150/124 103/151/124
f 105/152/125 90/153/125 104/149/125
f 84/154/126 105/152/126 106/142/126
f 115/155/127 70/156/127 110/157/127
f 116/158/128 74/159/128 76/160/128
f 117/161/129 73/162/129 93/163/129
f 113/164/130 72/165/130 73/162/130
f 112/166/131 71/167/131 72/165/131
f 110/157/132 71/167/132 111/168/132
f 118/169/133 93/163/133 96/170/133
f 103/151/134 92/171/134 107/172/134
f 118/169/135 99/173/135 119/174/135
f 107/172/136 95/175/136 108/176/136
f 114/177/137 99/173/137 74/159/137
f 108/176/138 98/178/138 109/147/138
f 96/170/139 109/147/139 99/173/139
f 107/172/140 96/170/140 93/163/140
f 73/162/141 107/172/141 93/163/141
f 106/142/142 71/167/142 70/156/142
f 71/167/143 104/149/143 72/165/143
f 72/165/144 103/151/144 73/162/144
f 99/173/145 102/144/145 74/159/145
f 74/159/146 100/146/146 76/160/146
f 101/143/147 70/156/147 75/179/147
f 125/180/148 119/174/148 114/177/148
f 128/181/149 119/174/149 129/182/149
f 127/183/150 118/169/150 128/181/150
f 121/184/132 111/168/132 122/185/132
f 123/186/151 111/168/151 112/166/151
f 124/187/152 112/166/152 113/164/152
f 127/183/153 113/164/153 117/161/153
f 120/188/154 114/177/154 116/158/154
f 126/189/155 110/157/155 121/184/155
f 82/190/156 121/184/156 77/191/156
f 83/192/157 125/180/157 120/188/157
f 91/193/158 124/187/158 127/183/158
f 80/194/152 123/186/152 124/187/152
f 79/195/159 122/185/159 123/186/159
f 77/191/160 122/185/160 78/196/160
f 94/197/161 127/183/161 128/181/161
f 97/198/149 128/181/149 129/182/149
f 81/199/162 129/182/162 125/180/162
f 87/141/163 84/154/163 106/142/163
f 102/144/164 88/148/164 86/145/164
f 109/147/165 98/178/165 88/148/165
f 104/149/166 90/153/166 89/150/166
f 105/152/167 85/200/167 90/153/167
f 84/154/168 85/200/168 105/152/168
f 115/155/169 75/179/169 70/156/169
f 116/158/170 114/177/170 74/159/170
f 117/161/171 113/164/171 73/162/171
f 113/164/172 112/166/172 72/165/172
f 112/166/173 111/168/173 71/167/173
f 110/157/174 70/156/174 71/167/174
f 118/169/175 117/161/175 93/163/175
f 103/151/176 89/150/176 92/171/176
f 118/169/177 96/170/177 99/173/177
f 107/172/178 92/171/178 95/175/178
f 114/177/179 119/174/179 99/173/179
f 108/176/180 95/175/180 98/178/180
f 96/170/181 108/176/181 109/147/181
f 107/172/182 108/176/182 96/170/182
f 73/162/183 103/151/183 107/172/183
f 106/142/184 105/152/184 71/167/184
f 71/167/185 105/152/185 104/149/185
f 72/165/186 104/149/186 103/151/186
f 99/173/138 109/147/138 102/144/138
f 74/159/187 102/144/187 100/146/187
f 101/143/188 106/142/188 70/156/188
f 125/180/149 129/182/149 119/174/149
f 128/181/189 118/169/189 119/174/189
f 127/183/190 117/161/190 118/169/190
f 121/184/191 110/157/191 111/168/191
f 123/186/192 122/185/192 111/168/192
f 124/187/193 123/186/193 112/166/193
f 127/183/194 124/187/194 113/164/194
f 120/188/195 125/180/195 114/177/195
f 126/189/196 115/155/196 110/157/196
f 82/190/197 126/189/197 121/184/197
f 83/192/198 81/199/198 125/180/198
f 91/193/199 80/194/199 124/187/199
f 80/194/200 79/195/200 123/186/200
f 79/195/201 78/196/201 122/185/201
f 77/191/202 121/184/202 122/185/202
f 94/197/203 91/193/203 127/183/203
f 97/198/204 94/197/204 128/181/204
f 81/199/205 97/198/205 129/182/205
