# Blender v2.78 (sub 0) OBJ File: ''
# www.blender.org
v -1.412384 2.400522 -1.741329
v -1.538455 17.487181 -1.614762
v -1.412384 2.400522 -2.226397
v -1.538455 17.487181 -2.099830
v -0.927316 2.400522 -1.741329
v -1.053387 17.487181 -1.614762
v -0.927316 2.400522 -2.226397
v -1.053387 17.487181 -2.099830
v -3.601741 1.769878 -1.677827
v -3.601741 2.548795 -1.677828
v -3.601741 1.769878 -2.456744
v -3.601741 2.548795 -2.456744
v 29.268141 1.769883 -1.677831
v 29.268141 2.548800 -1.677831
v 29.268141 1.769883 -2.456748
v 29.268141 2.548800 -2.456748
v -1.677428 1.873889 -1.721760
v -1.677428 2.508212 -1.721760
v -1.677428 1.873889 -25.593384
v -1.677428 2.508212 -25.593384
v -1.043106 1.873889 -1.721760
v -1.043106 2.508212 -1.721760
v -1.043106 1.873889 -25.593384
v -1.043106 2.508212 -25.593384
vn -1.0000 -0.0084 0.0000
vn 0.0000 0.0084 -1.0000
vn 1.0000 0.0084 0.0000
vn 0.0000 -0.0084 1.0000
vn 0.0000 -1.0000 0.0000
vn 0.0000 1.0000 0.0000
vn -1.0000 0.0000 0.0000
vn -0.0000 0.0000 -1.0000
vn 1.0000 0.0000 0.0000
vn 0.0000 0.0000 1.0000
s off
f 1//1 4//1 3//1
f 3//2 8//2 7//2
f 8//3 5//3 7//3
f 6//4 1//4 5//4
f 7//5 1//5 3//5
f 4//6 6//6 8//6
f 10//7 11//7 9//7
f 12//8 15//8 11//8
f 16//9 13//9 15//9
f 14//10 9//10 13//10
f 15//5 9//5 11//5
f 12//6 14//6 16//6
f 18//7 19//7 17//7
f 20//8 23//8 19//8
f 24//9 21//9 23//9
f 21//10 18//10 17//10
f 23//5 17//5 19//5
f 20//6 22//6 24//6
f 1//1 2//1 4//1
f 3//2 4//2 8//2
f 8//3 6//3 5//3
f 6//4 2//4 1//4
f 7//5 5//5 1//5
f 4//6 2//6 6//6
f 10//7 12//7 11//7
f 12//8 16//8 15//8
f 16//9 14//9 13//9
f 14//10 10//10 9//10
f 15//5 13//5 9//5
f 12//6 10//6 14//6
f 18//7 20//7 19//7
f 20//8 24//8 23//8
f 24//9 22//9 21//9
f 21//10 22//10 18//10
f 23//5 21//5 17//5
f 20//6 18//6 22//6
