# Blender v2.78 (sub 0) OBJ File: 'wioslo_odbite.blend'
# www.blender.org
v -2.383880 0.321546 -0.955037
v -3.246909 0.370087 -1.254701
v -2.386038 0.171970 -0.973050
v -3.249067 0.220510 -1.272714
v -2.346535 0.288825 -0.944910
v -2.347812 0.200276 -0.955574
v -2.409045 0.314263 -0.891548
v -3.260253 0.366225 -1.221034
v -2.411203 0.164687 -0.909562
v -3.262412 0.216649 -1.239046
v -2.372324 0.281361 -0.879846
v -2.373601 0.192812 -0.890510
v -2.324752 0.261306 -0.925125
v -2.325324 0.221681 -0.929897
v -2.340849 0.256647 -0.884513
v -2.341421 0.217023 -0.889285
v -2.322212 0.242311 -0.934640
v -2.343961 0.236017 -0.879770
v -2.333512 0.209701 -0.910753
v -2.332662 0.268627 -0.903657
v -0.640467 0.132490 -0.248543
v -0.641317 0.073564 -0.255639
v -0.651767 0.099880 -0.224655
v -0.630018 0.106174 -0.279526
v -0.649227 0.080885 -0.234170
v -0.648655 0.120510 -0.229399
v -0.633129 0.085544 -0.274783
v -0.632558 0.125169 -0.270011
v -3.267817 0.380524 -1.241980
v -3.270307 0.207950 -1.262763
v -2.398787 0.156829 -0.942691
v -2.360806 0.189737 -0.923861
v -2.359331 0.291901 -0.911558
v -2.396297 0.329404 -0.921908
v -0.640039 0.162129 -0.244973
v -0.641745 0.043925 -0.259208
v -0.656819 0.098418 -0.211910
v -0.624966 0.107636 -0.292272
v -0.657611 0.058612 -0.216144
v -0.656464 0.138097 -0.206572
v -0.625321 0.067957 -0.297610
v -0.624174 0.147442 -0.288038
v 0.378251 0.086902 0.150015
v 0.376545 -0.031301 0.135780
v 0.361472 0.023192 0.183079
v 0.393325 0.032410 0.102716
v 0.360679 -0.016614 0.178845
v 0.361826 0.062871 0.188416
v 0.392970 -0.007270 0.097378
v 0.394117 0.072216 0.106951
v 0.870400 0.020959 0.337522
v 0.869726 -0.025775 0.331894
v 0.861439 -0.004904 0.356467
v 0.878687 0.000088 0.312950
v 0.863453 -0.019968 0.348921
v 0.863906 0.011458 0.352705
v 0.876219 -0.016274 0.316712
v 0.876673 0.015152 0.320496
v 0.385202 0.045276 0.129149
v 0.378929 0.051083 0.146175
v 0.384748 0.013850 0.125364
v 0.387216 0.030212 0.121602
v 0.372435 0.041582 0.161358
v 0.371982 0.010156 0.157573
v 0.369967 0.025220 0.165119
v 0.378255 0.004349 0.140547
v 0.001523 0.101219 -0.045334
v -0.014343 0.115905 -0.002270
v 0.000376 0.021734 -0.054906
v 0.000731 0.061413 -0.049568
v -0.030767 0.091874 0.036132
v -0.031915 0.012389 0.026560
v -0.031122 0.052195 0.030794
v -0.016048 -0.002298 -0.016504
v -0.640467 0.132490 -0.248543
v -0.648655 0.120510 -0.229399
v -0.641317 0.073564 -0.255639
v -0.649227 0.080885 -0.234170
v -0.651767 0.099880 -0.224655
v -0.630018 0.106174 -0.279526
v -0.632558 0.125169 -0.270011
v -0.633129 0.085544 -0.274783
v -0.640039 0.162129 -0.244973
v -0.656464 0.138097 -0.206572
v -0.641745 0.043925 -0.259208
v -0.657611 0.058612 -0.216144
v -0.656819 0.098418 -0.211910
v -0.624966 0.107636 -0.292272
v -0.624174 0.147442 -0.288038
v -0.625321 0.067957 -0.297610
v 0.378251 0.086902 0.150015
v 0.361826 0.062871 0.188416
v 0.376545 -0.031301 0.135780
v 0.360679 -0.016614 0.178845
v 0.361472 0.023192 0.183079
v 0.393325 0.032410 0.102716
v 0.394117 0.072216 0.106951
v 0.392970 -0.007270 0.097378
v 0.870400 0.020959 0.337522
v 0.863906 0.011458 0.352705
v 0.869726 -0.025775 0.331894
v 0.863453 -0.019968 0.348921
v 0.861439 -0.004904 0.356467
v 0.878687 0.000088 0.312950
v 0.876673 0.015152 0.320496
v 0.876219 -0.016274 0.316712
v 0.385202 0.045276 0.129149
v 0.378929 0.051083 0.146175
v 0.384748 0.013850 0.125364
v 0.387216 0.030212 0.121602
v 0.372435 0.041582 0.161358
v 0.371982 0.010156 0.157573
v 0.369967 0.025220 0.165119
v 0.378255 0.004349 0.140547
vt 0.1880 0.3521
vt 0.0132 0.3736
vt 0.0175 0.3455
vt 0.1918 0.3792
vt 0.1986 0.3593
vt 0.0181 0.4302
vt 0.1786 0.3942
vt 0.1886 0.4221
vt 0.1919 0.3948
vt 0.0000 0.3880
vt 0.0097 0.4400
vt 0.2072 0.4218
vt 0.1991 0.4146
vt 0.1917 0.4333
vt 0.2147 0.3707
vt 0.2066 0.3520
vt 0.1769 0.3870
vt 0.1786 0.3799
vt 0.1917 0.3870
vt 0.2062 0.3862
vt 0.2083 0.3948
vt 0.2080 0.3777
vt 0.5734 0.3732
vt 0.5703 0.3695
vt 0.5738 0.3904
vt 0.5756 0.3948
vt 0.2059 0.3815
vt 0.5756 0.3860
vt 0.2153 0.4017
vt 0.5738 0.3988
vt 0.5708 0.4025
vt 0.2110 0.3743
vt 0.5754 0.3772
vt 0.2060 0.3910
vt 0.2114 0.3981
vt 0.5737 0.3816
vt 0.0088 0.3360
vt 0.1907 0.3409
vt 0.0134 0.4025
vt 0.5830 0.3607
vt 0.5703 0.3695
vt 0.5787 0.3502
vt 0.5738 0.3988
vt 0.5793 0.4214
vt 0.5708 0.4025
vt 0.5737 0.3816
vt 0.5848 0.3858
vt 0.5756 0.3860
vt 0.5734 0.3732
vt 0.5805 0.3695
vt 0.5754 0.3772
vt 0.5738 0.3904
vt 0.5808 0.4021
vt 0.5756 0.3948
vt 0.7401 0.3750
vt 0.8413 0.3849
vt 0.7398 0.3853
vt 0.7412 0.3553
vt 0.8462 0.3697
vt 0.7407 0.3652
vt 0.5850 0.3936
vt 0.5848 0.3858
vt 0.5805 0.3695
vt 0.7410 0.4054
vt 0.5835 0.4109
vt 0.5808 0.4021
vt 0.8418 0.3928
vt 0.8465 0.4000
vt 0.5787 0.3502
vt 0.7418 0.3450
vt 0.7425 0.4256
vt 0.8460 0.4089
vt 0.8516 0.4179
vt 0.8551 0.3802
vt 0.9993 0.3839
vt 0.8565 0.3847
vt 0.8544 0.3757
vt 0.9992 0.3737
vt 0.9992 0.3771
vt 0.8565 0.3847
vt 0.8418 0.3928
vt 0.8413 0.3849
vt 0.8551 0.3802
vt 0.8462 0.3697
vt 0.8544 0.3757
vt 0.8577 0.3974
vt 0.8465 0.4000
vt 0.8546 0.3936
vt 0.8551 0.3892
vt 0.9993 0.3907
vt 0.8546 0.3936
vt 0.8572 0.3719
vt 0.8511 0.3518
vt 0.8595 0.3681
vt 0.8600 0.4012
vt 0.9995 0.3942
vt 1.0000 0.3976
vt 0.8417 0.3770
vt 0.9992 0.3873
vt 0.8551 0.3892
vt 0.8595 0.3681
vt 1.0000 0.3698
vt 0.8516 0.4179
vt 0.8600 0.4012
vt 0.5848 0.3780
vt 0.5830 0.3607
vt 0.7402 0.3956
vt 0.8417 0.3770
vt 0.7417 0.4153
vt 0.8455 0.3608
vt 0.8511 0.3518
vt 0.5793 0.4214
vt 0.0000 0.4430
vt 0.0068 0.4400
vt 0.0027 0.4492
vt 0.5835 0.4109
vt 0.5848 0.3780
vt 0.5850 0.3936
vt 0.9995 0.3805
vt 0.8572 0.3719
vt 0.8460 0.4089
vt 0.8455 0.3608
vt 0.8577 0.3974
vt 0.0095 0.4462
vt 0.0068 0.4492
vt 0.0002 0.4467
vt 0.0027 0.4400
vt 0.0093 0.4426
vn -0.4768 0.5520 0.6840
vn -0.0005 -0.5004 0.8657
vn 0.0107 0.2804 0.9598
vn -0.6854 -0.5350 0.4938
vn -0.6717 0.4218 0.6090
vn 0.6205 0.4656 -0.6310
vn 0.0376 -0.5265 -0.8493
vn 0.0555 0.7118 -0.7002
vn -0.1253 -0.3729 -0.9193
vn 0.6701 -0.7206 0.1780
vn 0.6897 0.6384 0.3416
vn -0.5604 0.8182 -0.1282
vn -0.1115 0.5839 -0.8041
vn -0.2930 0.9561 -0.0040
vn -0.3473 0.9373 -0.0301
vn -0.3201 -0.9191 -0.2298
vn -0.4947 -0.6848 0.5351
vn -0.5830 -0.7481 -0.3169
vn -0.3885 -0.8853 -0.2555
vn 0.1700 0.1134 -0.9789
vn -0.5476 -0.0942 0.8314
vn -0.2429 0.6099 0.7543
vn 0.0310 0.9915 0.1260
vn 0.2447 -0.6049 -0.7577
vn 0.3665 0.1101 -0.9239
vn -0.6272 -0.6581 0.4164
vn -0.0310 -0.9915 -0.1260
vn 0.2858 0.7630 -0.5798
vn -0.6012 0.5578 0.5721
vn -0.3663 -0.1020 0.9249
vn -0.1256 -0.5130 -0.8491
vn -0.0956 0.7041 -0.7036
vn -0.2873 -0.7589 0.5844
vn 0.6091 -0.3200 -0.7256
vn 0.9303 -0.0570 0.3622
vn -0.3222 -0.6243 0.7117
vn -0.0252 -0.9920 -0.1238
vn -0.2949 0.4457 0.8452
vn -0.3664 -0.1061 0.9244
vn -0.3664 -0.1060 0.9244
vn 0.2941 -0.4488 -0.8438
vn -0.3664 -0.1059 0.9244
vn 0.3664 0.1060 -0.9244
vn 0.3228 0.6216 -0.7137
vn 0.3664 0.1061 -0.9244
vn 0.2957 -0.4426 -0.8466
vn 0.3664 0.1059 -0.9244
vn 0.0252 0.9920 0.1238
vn 0.3215 0.6270 -0.7096
vn -0.2751 -0.7617 0.5866
vn -0.0143 -0.9927 -0.1195
vn -0.2553 0.6082 0.7516
vn -0.9303 0.0216 -0.3662
vn -0.9192 0.0397 -0.3916
vn -0.9426 0.0315 -0.3325
vn -0.9488 0.0512 -0.3117
vn -0.9520 0.0501 -0.3020
vn -0.9165 0.0825 -0.3913
vn -0.9091 0.0627 -0.4117
vn -0.9049 0.0638 -0.4209
vn 0.2553 -0.6082 -0.7516
vn -0.9419 0.0751 -0.3272
vn -0.9292 0.0924 -0.3577
vn 0.0143 0.9927 0.1195
vn 0.2751 0.7617 -0.5866
vn -0.9408 0.0335 -0.3372
vn -0.9172 0.0389 -0.3966
vn -0.3215 -0.6270 0.7096
vn -0.2957 0.4426 0.8466
vn 0.2949 -0.4457 -0.8452
vn -0.3228 -0.6216 0.7137
vn 0.3222 0.6243 -0.7117
vn -0.2941 0.4488 0.8438
vn -0.9303 0.0570 -0.3622
vn -0.9186 0.0805 -0.3868
vn -0.9402 0.0743 -0.3323
s 1
f 3/1/1 2/2/2 4/3/3
f 5/4/4 3/1/1 6/5/5
f 10/6/6 7/7/7 9/8/8
f 11/9/9 9/8/8 7/7/7
f 29/10/10 10/6/6 30/11/11
f 32/12/12 9/8/8 12/13/13
f 31/14/14 10/6/6 9/8/8
f 19/15/15 6/5/5 32/16/12
f 34/17/16 2/2/2 1/18/17
f 33/19/18 7/7/7 34/17/16
f 5/4/4 20/20/19 33/19/18
f 18/21/20 12/13/13 11/9/9
f 6/5/5 17/22/21 5/4/4
f 82/23/22 19/15/15 77/24/23
f 18/21/20 76/25/24 79/26/25
f 13/27/26 75/28/27 20/20/19
f 19/29/15 78/30/28 77/31/23
f 14/32/29 80/33/30 17/22/21
f 75/28/27 15/34/31 20/20/19
f 79/26/25 16/35/32 18/21/20
f 81/36/33 17/22/21 80/33/30
f 4/3/3 29/10/10 30/37/11
f 3/1/1 32/16/12 6/5/5
f 4/3/3 31/38/14 3/1/1
f 8/39/34 34/17/16 7/7/7
f 1/18/17 33/19/18 34/17/16
f 19/29/15 12/13/13 16/35/32
f 11/9/9 20/20/19 15/34/31
f 90/40/35 22/41/35 85/42/35
f 25/43/35 85/44/35 22/45/35
f 28/46/35 83/47/35 21/48/35
f 27/49/35 88/50/35 24/51/35
f 83/47/35 26/52/35 21/48/35
f 88/50/35 28/46/35 24/51/35
f 87/53/35 25/43/35 23/54/35
f 26/52/35 87/53/35 23/54/35
f 67/55/36 43/56/37 68/57/37
f 69/58/38 46/59/39 70/60/40
f 68/57/37 40/61/41 35/62/37
f 67/55/36 38/63/42 70/60/40
f 73/64/43 39/65/44 37/66/45
f 73/64/43 48/67/46 95/68/47
f 69/58/38 36/69/48 74/70/48
f 74/71/48 94/72/49 93/73/48
f 107/74/50 99/75/51 60/76/51
f 62/77/40 106/78/52 104/79/40
f 108/80/53 92/81/54 91/82/53
f 59/83/55 96/84/56 110/85/57
f 112/86/58 45/87/59 65/88/60
f 63/89/61 103/90/43 113/91/43
f 61/92/62 44/93/63 66/94/63
f 114/95/64 102/96/65 101/97/64
f 97/98/66 108/80/53 91/82/53
f 96/84/56 61/92/62 110/85/57
f 100/99/61 60/76/51 99/75/51
f 104/79/40 107/74/50 62/77/40
f 102/96/65 113/91/43 103/90/43
f 45/87/59 111/100/67 65/88/60
f 106/78/52 114/101/64 101/102/64
f 44/103/63 112/86/58 66/104/63
f 42/105/68 68/57/37 35/62/37
f 41/106/69 70/60/40 38/63/42
f 43/56/37 71/107/70 68/57/37
f 50/108/71 70/60/40 46/59/39
f 95/68/47 72/109/72 73/64/43
f 37/66/45 71/107/70 73/64/43
f 49/110/73 74/70/48 93/111/48
f 36/112/48 72/109/72 74/71/48
f 57/113/74 55/114/74 58/115/74
f 3/1/1 1/18/17 2/2/2
f 5/4/4 1/18/17 3/1/1
f 10/6/6 8/39/34 7/7/7
f 11/9/9 12/13/13 9/8/8
f 29/10/10 8/39/34 10/6/6
f 32/12/12 31/14/14 9/8/8
f 31/14/14 30/11/11 10/6/6
f 19/15/15 14/32/29 6/5/5
f 34/17/16 29/10/10 2/2/2
f 33/19/18 11/9/9 7/7/7
f 5/4/4 13/27/26 20/20/19
f 11/9/9 15/34/31 18/21/20
f 18/21/20 16/35/32 12/13/13
f 13/27/26 5/4/4 17/22/21
f 6/5/5 14/32/29 17/22/21
f 82/23/22 14/32/29 19/15/15
f 18/21/20 15/34/31 76/25/24
f 13/27/26 81/36/33 75/28/27
f 19/29/15 16/35/32 78/30/28
f 14/32/29 82/23/22 80/33/30
f 75/28/27 76/25/24 15/34/31
f 79/26/25 78/30/28 16/35/32
f 81/36/33 13/27/26 17/22/21
f 4/3/3 2/2/2 29/10/10
f 3/1/1 31/38/14 32/16/12
f 4/3/3 30/37/11 31/38/14
f 8/39/34 29/10/10 34/17/16
f 1/18/17 5/4/4 33/19/18
f 19/29/15 32/12/12 12/13/13
f 11/9/9 33/19/18 20/20/19
f 90/40/35 27/49/35 22/41/35
f 25/43/35 86/116/35 85/44/35
f 28/46/35 89/117/35 83/47/35
f 27/49/35 90/40/35 88/50/35
f 83/47/35 84/118/35 26/52/35
f 88/50/35 89/117/35 28/46/35
f 87/53/35 86/116/35 25/43/35
f 26/52/35 84/118/35 87/53/35
f 67/55/36 50/108/71 43/56/37
f 69/58/38 49/110/73 46/59/39
f 68/57/37 71/107/70 40/61/41
f 67/55/36 42/105/68 38/63/42
f 73/64/43 72/109/72 39/65/44
f 73/64/43 71/107/70 48/67/46
f 69/58/38 41/106/69 36/69/48
f 74/71/48 72/109/72 94/72/49
f 107/74/50 105/119/50 99/75/51
f 62/77/40 109/120/52 106/78/52
f 108/80/53 111/100/67 92/81/54
f 59/83/55 97/98/66 96/84/56
f 112/86/58 47/121/75 45/87/59
f 63/89/61 100/99/61 103/90/43
f 61/92/62 98/122/76 44/93/63
f 114/95/64 64/123/65 102/96/65
f 97/98/66 59/83/55 108/80/53
f 96/84/56 98/122/76 61/92/62
f 100/99/61 63/89/61 60/76/51
f 104/79/40 105/119/50 107/74/50
f 102/96/65 64/123/65 113/91/43
f 45/87/59 92/81/54 111/100/67
f 106/78/52 109/120/52 114/101/64
f 44/103/63 47/121/75 112/86/58
f 42/105/68 67/55/36 68/57/37
f 41/106/69 69/58/38 70/60/40
f 43/56/37 48/67/46 71/107/70
f 50/108/71 67/55/36 70/60/40
f 95/68/47 94/72/49 72/109/72
f 37/66/45 40/61/41 71/107/70
f 49/110/73 69/58/38 74/70/48
f 36/112/48 39/65/44 72/109/72
f 56/124/74 51/125/74 58/115/74
f 58/115/74 54/126/74 57/113/74
f 57/113/74 52/127/74 55/114/74
f 55/114/74 53/128/74 56/124/74
f 56/124/74 58/115/74 55/114/74
