# Blender v2.78 (sub 0) OBJ File: 'wioslo_odbite.blend'
# www.blender.org
v -2.505007 0.321546 0.543567
v -3.386885 0.370087 0.782120
v -2.516937 0.171970 0.529900
v -3.398815 0.220510 0.768452
v -2.468446 0.288825 0.530898
v -2.475509 0.200276 0.522807
v -2.490036 0.314263 0.610200
v -3.378946 0.366225 0.817455
v -2.501966 0.164687 0.596532
v -3.390876 0.216649 0.803787
v -2.453104 0.281361 0.599184
v -2.460166 0.192812 0.591093
v -2.439303 0.261306 0.534975
v -2.442464 0.221681 0.531354
v -2.429727 0.256647 0.577598
v -2.432887 0.217023 0.573978
v -2.442564 0.242311 0.525682
v -2.429626 0.236017 0.583270
v -2.438445 0.209701 0.551784
v -2.433745 0.268627 0.557168
v -0.666543 0.132490 0.145231
v -0.671243 0.073564 0.139846
v -0.662423 0.099880 0.171333
v -0.675362 0.106174 0.113745
v -0.665685 0.080885 0.162040
v -0.662524 0.120510 0.165661
v -0.675261 0.085544 0.119416
v -0.672101 0.125169 0.123037
v -3.396995 0.380524 0.804408
v -3.410759 0.207950 0.788639
v -2.510369 0.156829 0.562165
v -2.468380 0.189737 0.556328
v -2.460232 0.291901 0.565663
v -2.496604 0.329404 0.577934
v -0.664179 0.162129 0.147939
v -0.673607 0.043925 0.137138
v -0.659418 0.098418 0.184710
v -0.678368 0.107636 0.100368
v -0.662457 0.058612 0.181658
v -0.656118 0.138097 0.188920
v -0.681668 0.067957 0.096157
v -0.675328 0.147442 0.103420
v 0.399681 0.086902 -0.099312
v 0.390253 -0.031301 -0.110113
v 0.404442 0.023192 -0.062542
v 0.385492 0.032410 -0.146884
v 0.401403 -0.016614 -0.065594
v 0.407742 0.062871 -0.058331
v 0.382192 -0.007270 -0.151094
v 0.388532 0.072216 -0.143831
v 0.911942 0.020959 -0.221615
v 0.908215 -0.025775 -0.225886
v 0.915210 -0.004904 -0.200914
v 0.904948 0.000088 -0.246587
v 0.912623 -0.019968 -0.208284
v 0.915130 0.011458 -0.205413
v 0.905028 -0.016274 -0.242088
v 0.907535 0.015152 -0.239217
v 0.393670 0.045276 -0.120468
v 0.398078 0.051083 -0.102867
v 0.391163 0.013850 -0.123340
v 0.391084 0.030212 -0.127838
v 0.401265 0.041582 -0.086664
v 0.398759 0.010156 -0.089536
v 0.401345 0.025220 -0.082166
v 0.394351 0.004349 -0.107137
v -0.021631 0.101219 -0.048506
v -0.010482 0.115905 -0.003986
v -0.027971 0.021734 -0.055769
v -0.024671 0.061413 -0.051558
v -0.002420 0.091874 0.036995
v -0.008760 0.012389 0.029732
v -0.005721 0.052195 0.032784
v -0.019909 -0.002298 -0.014787
v -0.666543 0.132490 0.145231
v -0.662524 0.120510 0.165661
v -0.671243 0.073564 0.139846
v -0.665685 0.080885 0.162040
v -0.662423 0.099880 0.171333
v -0.675362 0.106174 0.113745
v -0.672101 0.125169 0.123037
v -0.675261 0.085544 0.119416
v -0.664179 0.162129 0.147939
v -0.656118 0.138097 0.188920
v -0.673607 0.043925 0.137138
v -0.662457 0.058612 0.181658
v -0.659418 0.098418 0.184710
v -0.678368 0.107636 0.100368
v -0.675328 0.147442 0.103420
v -0.681668 0.067957 0.096157
v 0.399681 0.086902 -0.099312
v 0.407742 0.062871 -0.058331
v 0.390253 -0.031301 -0.110113
v 0.401403 -0.016614 -0.065594
v 0.404442 0.023192 -0.062542
v 0.385492 0.032410 -0.146884
v 0.388532 0.072216 -0.143831
v 0.382192 -0.007270 -0.151094
v 0.911942 0.020959 -0.221615
v 0.915130 0.011458 -0.205413
v 0.908215 -0.025775 -0.225886
v 0.912623 -0.019968 -0.208284
v 0.915210 -0.004904 -0.200914
v 0.904948 0.000088 -0.246587
v 0.907535 0.015152 -0.239217
v 0.905028 -0.016274 -0.242088
v 0.393670 0.045276 -0.120468
v 0.398078 0.051083 -0.102867
v 0.391163 0.013850 -0.123340
v 0.391084 0.030212 -0.127838
v 0.401265 0.041582 -0.086664
v 0.398759 0.010156 -0.089536
v 0.401345 0.025220 -0.082166
v 0.394351 0.004349 -0.107137
vt 0.1786 0.3799
vt 0.0175 0.3455
vt 0.1880 0.3521
vt 0.1918 0.3792
vt 0.1986 0.3593
vt 0.0181 0.4302
vt 0.1786 0.3942
vt 0.1886 0.4221
vt 0.1919 0.3948
vt 0.0000 0.3880
vt 0.0097 0.4400
vt 0.2072 0.4218
vt 0.1991 0.4146
vt 0.1917 0.4333
vt 0.2147 0.3707
vt 0.2066 0.3520
vt 0.1769 0.3870
vt 0.0132 0.3736
vt 0.1917 0.3870
vt 0.2062 0.3862
vt 0.2083 0.3948
vt 0.2080 0.3777
vt 0.5734 0.3732
vt 0.5703 0.3695
vt 0.5738 0.3904
vt 0.5756 0.3948
vt 0.2059 0.3815
vt 0.5756 0.3860
vt 0.2153 0.4017
vt 0.5738 0.3988
vt 0.5708 0.4025
vt 0.2110 0.3743
vt 0.5754 0.3772
vt 0.2060 0.3910
vt 0.2114 0.3981
vt 0.5737 0.3816
vt 0.0088 0.3360
vt 0.1907 0.3409
vt 0.0134 0.4025
vt 0.5830 0.3607
vt 0.5703 0.3695
vt 0.5787 0.3502
vt 0.5738 0.3988
vt 0.5793 0.4214
vt 0.5708 0.4025
vt 0.5737 0.3816
vt 0.5848 0.3858
vt 0.5756 0.3860
vt 0.5734 0.3732
vt 0.5805 0.3695
vt 0.5754 0.3772
vt 0.5738 0.3904
vt 0.5808 0.4021
vt 0.5756 0.3948
vt 0.7401 0.3750
vt 0.8413 0.3849
vt 0.7398 0.3853
vt 0.7412 0.3553
vt 0.8462 0.3697
vt 0.7407 0.3652
vt 0.5850 0.3936
vt 0.5848 0.3858
vt 0.5805 0.3695
vt 0.7410 0.4054
vt 0.5835 0.4109
vt 0.5808 0.4021
vt 0.8418 0.3928
vt 0.8465 0.4000
vt 0.5787 0.3502
vt 0.7418 0.3450
vt 0.7425 0.4256
vt 0.8460 0.4089
vt 0.8516 0.4179
vt 0.8551 0.3802
vt 0.9993 0.3839
vt 0.8565 0.3847
vt 0.8544 0.3757
vt 0.9992 0.3737
vt 0.9992 0.3771
vt 0.8565 0.3847
vt 0.8418 0.3928
vt 0.8413 0.3849
vt 0.8551 0.3802
vt 0.8462 0.3697
vt 0.8544 0.3757
vt 0.8577 0.3974
vt 0.8465 0.4000
vt 0.8546 0.3936
vt 0.8551 0.3892
vt 0.9993 0.3907
vt 0.8546 0.3936
vt 0.8572 0.3719
vt 0.8511 0.3518
vt 0.8595 0.3681
vt 0.8600 0.4012
vt 0.9995 0.3942
vt 1.0000 0.3976
vt 0.8417 0.3770
vt 0.8551 0.3892
vt 0.8595 0.3681
vt 1.0000 0.3698
vt 0.8516 0.4179
vt 0.8600 0.4012
vt 0.5848 0.3780
vt 0.5830 0.3607
vt 0.7402 0.3956
vt 0.8417 0.3770
vt 0.7417 0.4153
vt 0.8455 0.3608
vt 0.8511 0.3518
vt 0.5793 0.4214
vt 0.0000 0.4430
vt 0.0068 0.4400
vt 0.0095 0.4462
vt 0.5835 0.4109
vt 0.5848 0.3780
vt 0.5850 0.3936
vt 0.9995 0.3805
vt 0.8572 0.3719
vt 0.8460 0.4089
vt 0.9992 0.3873
vt 0.8455 0.3608
vt 0.8577 0.3974
vt 0.0068 0.4492
vt 0.0027 0.4492
vt 0.0002 0.4467
vt 0.0027 0.4400
vt 0.0093 0.4426
vn -0.1073 -0.6848 0.7208
vn 0.5495 0.2804 0.7870
vn -0.0086 0.5520 0.8338
vn -0.2882 -0.5350 0.7941
vn -0.2119 0.4218 0.8816
vn 0.1572 0.4656 -0.8709
vn -0.4473 -0.5265 -0.7229
vn -0.3486 0.7118 -0.6097
vn -0.6214 -0.3729 -0.6890
vn 0.6539 -0.7206 -0.2304
vn 0.7623 0.6384 -0.1062
vn -0.5352 0.8182 0.2097
vn -0.5451 0.5839 -0.6016
vn -0.2444 0.9561 0.1617
vn -0.3039 0.9373 0.1707
vn -0.3940 -0.9191 -0.0096
vn 0.4872 -0.5004 0.7156
vn -0.6602 -0.7481 0.0666
vn -0.4650 -0.8853 0.0077
vn -0.4110 0.1134 -0.9045
vn 0.0159 -0.0942 0.9954
vn 0.2242 0.6099 0.7601
vn 0.0966 0.9915 0.0866
vn -0.2246 -0.6049 -0.7639
vn -0.2176 0.1101 -0.9698
vn -0.2837 -0.6581 0.6974
vn -0.0966 -0.9915 -0.0866
vn -0.0904 0.7630 -0.6401
vn -0.1745 0.5578 0.8114
vn 0.2184 -0.1020 0.9705
vn -0.5821 -0.5130 -0.6308
vn -0.4753 0.7041 -0.5275
vn 0.0918 -0.7589 0.6447
vn 0.0946 -0.3200 -0.9427
vn 0.9727 -0.0570 -0.2248
vn 0.1347 -0.6243 0.7695
vn -0.0906 -0.9920 -0.0880
vn 0.2324 0.4457 0.8645
vn 0.2180 -0.1061 0.9702
vn 0.2180 -0.1060 0.9702
vn -0.2323 -0.4488 -0.8629
vn 0.2180 -0.1059 0.9702
vn -0.2180 0.1060 -0.9702
vn -0.1353 0.6216 -0.7715
vn -0.2180 0.1061 -0.9702
vn -0.2326 -0.4426 -0.8660
vn -0.2180 0.1059 -0.9702
vn 0.0906 0.9920 0.0880
vn -0.1340 0.6270 -0.7674
vn 0.1032 -0.7617 0.6396
vn -0.0791 -0.9927 -0.0907
vn 0.2124 0.6082 0.7648
vn -0.9749 0.0216 0.2214
vn -0.9801 0.0397 0.1942
vn -0.9661 0.0315 0.2562
vn -0.9595 0.0512 0.2769
vn -0.9567 0.0501 0.2867
vn -0.9777 0.0825 0.1929
vn -0.9831 0.0627 0.1720
vn -0.9847 0.0638 0.1620
vn -0.2124 -0.6082 -0.7648
vn -0.9626 0.0751 0.2602
vn -0.9693 0.0924 0.2279
vn 0.0791 0.9927 0.0907
vn -0.1032 0.7617 -0.6396
vn -0.9673 0.0335 0.2514
vn -0.9812 0.0389 0.1890
vn 0.1340 -0.6270 0.7674
vn 0.2326 0.4426 0.8660
vn -0.2324 -0.4457 -0.8645
vn 0.1353 -0.6216 0.7715
vn -0.1347 0.6243 -0.7695
vn 0.2323 0.4488 0.8629
vn -0.9727 0.0570 0.2248
vn -0.9769 0.0805 0.1979
vn -0.9640 0.0743 0.2551
s 1
f 1/1/1 4/2/2 3/3/3
f 5/4/4 3/3/3 6/5/5
f 10/6/6 7/7/7 9/8/8
f 11/9/9 9/8/8 7/7/7
f 29/10/10 10/6/6 30/11/11
f 32/12/12 9/8/8 12/13/13
f 31/14/14 10/6/6 9/8/8
f 19/15/15 6/5/5 32/16/12
f 34/17/16 2/18/17 1/1/1
f 33/19/18 7/7/7 34/17/16
f 5/4/4 20/20/19 33/19/18
f 18/21/20 12/13/13 11/9/9
f 6/5/5 17/22/21 5/4/4
f 82/23/22 19/15/15 77/24/23
f 18/21/20 76/25/24 79/26/25
f 13/27/26 75/28/27 20/20/19
f 19/29/15 78/30/28 77/31/23
f 14/32/29 80/33/30 17/22/21
f 75/28/27 15/34/31 20/20/19
f 79/26/25 16/35/32 18/21/20
f 81/36/33 17/22/21 80/33/30
f 4/2/2 29/10/10 30/37/11
f 3/3/3 32/16/12 6/5/5
f 4/2/2 31/38/14 3/3/3
f 8/39/34 34/17/16 7/7/7
f 1/1/1 33/19/18 34/17/16
f 19/29/15 12/13/13 16/35/32
f 11/9/9 20/20/19 15/34/31
f 90/40/35 22/41/35 85/42/35
f 25/43/35 85/44/35 22/45/35
f 28/46/35 83/47/35 21/48/35
f 27/49/35 88/50/35 24/51/35
f 83/47/35 26/52/35 21/48/35
f 88/50/35 28/46/35 24/51/35
f 87/53/35 25/43/35 23/54/35
f 26/52/35 87/53/35 23/54/35
f 67/55/36 43/56/37 68/57/37
f 69/58/38 46/59/39 70/60/40
f 68/57/37 40/61/41 35/62/37
f 67/55/36 38/63/42 70/60/40
f 73/64/43 39/65/44 37/66/45
f 73/64/43 48/67/46 95/68/47
f 69/58/38 36/69/48 74/70/48
f 74/71/48 94/72/49 93/73/48
f 107/74/50 99/75/51 60/76/51
f 62/77/40 106/78/52 104/79/40
f 108/80/53 92/81/54 91/82/53
f 59/83/55 96/84/56 110/85/57
f 112/86/58 45/87/59 65/88/60
f 63/89/61 103/90/43 113/91/43
f 61/92/62 44/93/63 66/94/63
f 114/95/64 102/96/65 101/97/64
f 97/98/66 108/80/53 91/82/53
f 96/84/56 61/92/62 110/85/57
f 99/75/51 63/89/61 60/76/51
f 104/79/40 107/74/50 62/77/40
f 102/96/65 113/91/43 103/90/43
f 45/87/59 111/99/67 65/88/60
f 106/78/52 114/100/64 101/101/64
f 44/102/63 112/86/58 66/103/63
f 42/104/68 68/57/37 35/62/37
f 41/105/69 70/60/40 38/63/42
f 43/56/37 71/106/70 68/57/37
f 50/107/71 70/60/40 46/59/39
f 95/68/47 72/108/72 73/64/43
f 37/66/45 71/106/70 73/64/43
f 49/109/73 74/70/48 93/110/48
f 36/111/48 72/108/72 74/71/48
f 57/112/74 55/113/74 56/114/74
f 1/1/1 2/18/17 4/2/2
f 5/4/4 1/1/1 3/3/3
f 10/6/6 8/39/34 7/7/7
f 11/9/9 12/13/13 9/8/8
f 29/10/10 8/39/34 10/6/6
f 32/12/12 31/14/14 9/8/8
f 31/14/14 30/11/11 10/6/6
f 19/15/15 14/32/29 6/5/5
f 34/17/16 29/10/10 2/18/17
f 33/19/18 11/9/9 7/7/7
f 5/4/4 13/27/26 20/20/19
f 11/9/9 15/34/31 18/21/20
f 18/21/20 16/35/32 12/13/13
f 13/27/26 5/4/4 17/22/21
f 6/5/5 14/32/29 17/22/21
f 82/23/22 14/32/29 19/15/15
f 18/21/20 15/34/31 76/25/24
f 13/27/26 81/36/33 75/28/27
f 19/29/15 16/35/32 78/30/28
f 14/32/29 82/23/22 80/33/30
f 75/28/27 76/25/24 15/34/31
f 79/26/25 78/30/28 16/35/32
f 81/36/33 13/27/26 17/22/21
f 4/2/2 2/18/17 29/10/10
f 3/3/3 31/38/14 32/16/12
f 4/2/2 30/37/11 31/38/14
f 8/39/34 29/10/10 34/17/16
f 1/1/1 5/4/4 33/19/18
f 19/29/15 32/12/12 12/13/13
f 11/9/9 33/19/18 20/20/19
f 90/40/35 27/49/35 22/41/35
f 25/43/35 86/115/35 85/44/35
f 28/46/35 89/116/35 83/47/35
f 27/49/35 90/40/35 88/50/35
f 83/47/35 84/117/35 26/52/35
f 88/50/35 89/116/35 28/46/35
f 87/53/35 86/115/35 25/43/35
f 26/52/35 84/117/35 87/53/35
f 67/55/36 50/107/71 43/56/37
f 69/58/38 49/109/73 46/59/39
f 68/57/37 71/106/70 40/61/41
f 67/55/36 42/104/68 38/63/42
f 73/64/43 72/108/72 39/65/44
f 73/64/43 71/106/70 48/67/46
f 69/58/38 41/105/69 36/69/48
f 74/71/48 72/108/72 94/72/49
f 107/74/50 105/118/50 99/75/51
f 62/77/40 109/119/52 106/78/52
f 108/80/53 111/99/67 92/81/54
f 59/83/55 97/98/66 96/84/56
f 112/86/58 47/120/75 45/87/59
f 63/89/61 100/121/61 103/90/43
f 61/92/62 98/122/76 44/93/63
f 114/95/64 64/123/65 102/96/65
f 97/98/66 59/83/55 108/80/53
f 96/84/56 98/122/76 61/92/62
f 99/75/51 100/121/61 63/89/61
f 104/79/40 105/118/50 107/74/50
f 102/96/65 64/123/65 113/91/43
f 45/87/59 92/81/54 111/99/67
f 106/78/52 109/119/52 114/100/64
f 44/102/63 47/120/75 112/86/58
f 42/104/68 67/55/36 68/57/37
f 41/105/69 69/58/38 70/60/40
f 43/56/37 48/67/46 71/106/70
f 50/107/71 67/55/36 70/60/40
f 95/68/47 94/72/49 72/108/72
f 37/66/45 40/61/41 71/106/70
f 49/109/73 69/58/38 74/70/48
f 36/111/48 39/65/44 72/108/72
f 56/114/74 51/124/74 57/112/74
f 58/125/74 54/126/74 57/112/74
f 57/112/74 52/127/74 55/113/74
f 55/113/74 53/128/74 56/114/74
f 51/124/74 58/125/74 57/112/74
