# Blender v2.78 (sub 0) OBJ File: 'wioslo_odbite.blend'
# www.blender.org
v -2.339674 0.321546 1.040241
v -3.154275 0.370087 1.453814
v -2.354143 0.171970 1.029297
v -3.168744 0.220510 1.442870
v -2.306470 0.288825 1.020374
v -2.315036 0.200276 1.013895
v -2.311415 0.314263 1.102414
v -3.139289 0.366225 1.486784
v -2.325884 0.164687 1.091470
v -3.153758 0.216649 1.475840
v -2.277509 0.281361 1.084090
v -2.286075 0.192812 1.077611
v -2.277108 0.261306 1.018415
v -2.280941 0.221681 1.015516
v -2.259031 0.256647 1.058186
v -2.262865 0.217023 1.055287
v -2.282198 0.242311 1.009984
v -2.257775 0.236017 1.063718
v -2.272836 0.209701 1.034695
v -2.267136 0.268627 1.039007
v -0.621257 0.132490 0.274953
v -0.626957 0.073564 0.270642
v -0.611895 0.099880 0.299665
v -0.636319 0.106174 0.245931
v -0.616985 0.080885 0.291234
v -0.613152 0.120510 0.294133
v -0.635062 0.085544 0.251463
v -0.631229 0.125169 0.254362
v -3.159621 0.380524 1.477696
v -3.176315 0.207950 1.465070
v -2.341125 0.156829 1.059542
v -2.301213 0.189737 1.045255
v -2.291330 0.291901 1.052730
v -2.324432 0.329404 1.072169
v -0.618390 0.162129 0.277122
v -0.629824 0.043925 0.268473
v -0.606222 0.098418 0.312146
v -0.641992 0.107636 0.233449
v -0.609821 0.058612 0.309779
v -0.602132 0.138097 0.315594
v -0.646082 0.067957 0.230001
v -0.638393 0.147442 0.235817
v 0.372584 0.086902 -0.182120
v 0.361149 -0.031301 -0.190768
v 0.384752 0.023192 -0.147095
v 0.348981 0.032410 -0.225792
v 0.381153 -0.016614 -0.149462
v 0.388842 0.062871 -0.143647
v 0.344891 -0.007270 -0.229240
v 0.352580 0.072216 -0.223425
v 0.849086 0.020959 -0.406430
v 0.844565 -0.025775 -0.409849
v 0.856511 -0.004904 -0.386832
v 0.837141 0.000088 -0.429447
v 0.852474 -0.019968 -0.393519
v 0.855514 0.011458 -0.391219
v 0.838137 -0.016274 -0.425060
v 0.841178 0.015152 -0.422761
v 0.362380 0.045276 -0.201603
v 0.370289 0.051083 -0.185272
v 0.359340 0.013850 -0.203902
v 0.358343 0.030212 -0.208289
v 0.376717 0.041582 -0.170061
v 0.373677 0.010156 -0.172361
v 0.377713 0.025220 -0.165674
v 0.365768 0.004349 -0.188691
v -0.029482 0.101219 -0.046368
v -0.009478 0.115905 -0.005062
v -0.037171 0.021734 -0.052184
v -0.033081 0.061413 -0.048735
v 0.006780 0.091874 0.033410
v -0.000909 0.012389 0.027594
v 0.002689 0.052195 0.029961
v -0.020913 -0.002298 -0.013711
v -0.621257 0.132490 0.274953
v -0.613152 0.120510 0.294133
v -0.626957 0.073564 0.270642
v -0.616985 0.080885 0.291234
v -0.611895 0.099880 0.299665
v -0.636319 0.106174 0.245931
v -0.631229 0.125169 0.254362
v -0.635062 0.085544 0.251463
v -0.618390 0.162129 0.277122
v -0.602132 0.138097 0.315594
v -0.629824 0.043925 0.268473
v -0.609821 0.058612 0.309779
v -0.606222 0.098418 0.312146
v -0.641992 0.107636 0.233449
v -0.638393 0.147442 0.235817
v -0.646082 0.067957 0.230001
v 0.372584 0.086902 -0.182120
v 0.388842 0.062871 -0.143647
v 0.361149 -0.031301 -0.190768
v 0.381153 -0.016614 -0.149462
v 0.384752 0.023192 -0.147095
v 0.348981 0.032410 -0.225792
v 0.352580 0.072216 -0.223425
v 0.344891 -0.007270 -0.229240
v 0.849086 0.020959 -0.406430
v 0.855514 0.011458 -0.391219
v 0.844565 -0.025775 -0.409849
v 0.852474 -0.019968 -0.393519
v 0.856511 -0.004904 -0.386832
v 0.837141 0.000088 -0.429447
v 0.841178 0.015152 -0.422761
v 0.838137 -0.016274 -0.425060
v 0.362380 0.045276 -0.201603
v 0.370289 0.051083 -0.185272
v 0.359340 0.013850 -0.203902
v 0.358343 0.030212 -0.208289
v 0.376717 0.041582 -0.170061
v 0.373677 0.010156 -0.172361
v 0.377713 0.025220 -0.165674
v 0.365768 0.004349 -0.188691
vt 0.1880 0.3521
vt 0.0132 0.3736
vt 0.0175 0.3455
vt 0.1918 0.3792
vt 0.1986 0.3593
vt 0.0181 0.4302
vt 0.1786 0.3942
vt 0.1886 0.4221
vt 0.1919 0.3948
vt 0.0000 0.3880
vt 0.0097 0.4400
vt 0.2072 0.4218
vt 0.1991 0.4146
vt 0.1917 0.4333
vt 0.2147 0.3707
vt 0.2066 0.3520
vt 0.1769 0.3870
vt 0.1786 0.3799
vt 0.1917 0.3870
vt 0.2062 0.3862
vt 0.2083 0.3948
vt 0.2080 0.3777
vt 0.5734 0.3732
vt 0.5703 0.3695
vt 0.5738 0.3904
vt 0.5756 0.3948
vt 0.2059 0.3815
vt 0.5756 0.3860
vt 0.2153 0.4017
vt 0.5738 0.3988
vt 0.5708 0.4025
vt 0.2110 0.3743
vt 0.5754 0.3772
vt 0.2060 0.3910
vt 0.2114 0.3981
vt 0.5737 0.3816
vt 0.0088 0.3360
vt 0.1907 0.3409
vt 0.0134 0.4025
vt 0.5830 0.3607
vt 0.5703 0.3695
vt 0.5787 0.3502
vt 0.5708 0.4025
vt 0.5835 0.4109
vt 0.5793 0.4214
vt 0.5737 0.3816
vt 0.5848 0.3858
vt 0.5756 0.3860
vt 0.5734 0.3732
vt 0.5805 0.3695
vt 0.5754 0.3772
vt 0.5738 0.3904
vt 0.5808 0.4021
vt 0.5738 0.3988
vt 0.5756 0.3948
vt 0.7401 0.3750
vt 0.8413 0.3849
vt 0.7398 0.3853
vt 0.7412 0.3553
vt 0.8462 0.3697
vt 0.7407 0.3652
vt 0.5850 0.3936
vt 0.5848 0.3858
vt 0.5805 0.3695
vt 0.7410 0.4054
vt 0.5835 0.4109
vt 0.5808 0.4021
vt 0.8418 0.3928
vt 0.8465 0.4000
vt 0.5787 0.3502
vt 0.7418 0.3450
vt 0.7425 0.4256
vt 0.8460 0.4089
vt 0.8516 0.4179
vt 0.8551 0.3802
vt 0.9993 0.3839
vt 0.8565 0.3847
vt 0.8544 0.3757
vt 0.9992 0.3737
vt 0.9992 0.3771
vt 0.8565 0.3847
vt 0.8418 0.3928
vt 0.8413 0.3849
vt 0.8551 0.3802
vt 0.8462 0.3697
vt 0.8544 0.3757
vt 0.8577 0.3974
vt 0.8465 0.4000
vt 0.8546 0.3936
vt 0.8551 0.3892
vt 0.9993 0.3907
vt 0.8546 0.3936
vt 0.8572 0.3719
vt 0.8511 0.3518
vt 0.8595 0.3681
vt 0.8600 0.4012
vt 0.9995 0.3942
vt 1.0000 0.3976
vt 0.8417 0.3770
vt 0.9992 0.3873
vt 0.8551 0.3892
vt 0.8595 0.3681
vt 1.0000 0.3698
vt 0.8516 0.4179
vt 0.8600 0.4012
vt 0.5848 0.3780
vt 0.5830 0.3607
vt 0.7402 0.3956
vt 0.8417 0.3770
vt 0.7417 0.4153
vt 0.8455 0.3608
vt 0.8511 0.3518
vt 0.5793 0.4214
vt 0.0000 0.4430
vt 0.0068 0.4400
vt 0.0095 0.4462
vt 0.5848 0.3780
vt 0.5850 0.3936
vt 0.9995 0.3805
vt 0.8572 0.3719
vt 0.8460 0.4089
vt 0.8455 0.3608
vt 0.8577 0.3974
vt 0.0068 0.4492
vt 0.0027 0.4492
vt 0.0002 0.4467
vt 0.0027 0.4400
vt 0.0093 0.4426
vn 0.1617 0.5520 0.8180
vn 0.6230 -0.5004 0.6011
vn 0.6986 0.2804 0.6582
vn -0.1200 -0.5350 0.8362
vn -0.0274 0.4218 0.9062
vn -0.0239 0.4656 -0.8847
vn -0.5855 -0.5265 -0.6164
vn -0.4657 0.7118 -0.5257
vn -0.7490 -0.3729 -0.5476
vn 0.5931 -0.7206 -0.3591
vn 0.7246 0.6384 -0.2596
vn -0.4812 0.8182 0.3145
vn -0.6565 0.5839 -0.4776
vn -0.2062 0.9561 0.2082
vn -0.2626 0.9373 0.2292
vn -0.3876 -0.9191 0.0710
vn 0.0421 -0.6848 0.7275
vn -0.6327 -0.7481 0.1999
vn -0.4536 -0.8853 0.1025
vn -0.5870 0.1134 -0.8016
vn 0.2188 -0.0942 0.9712
vn 0.3746 0.6099 0.6983
vn 0.1122 0.9915 0.0651
vn -0.3759 -0.6049 -0.7020
vn -0.4110 0.1101 -0.9049
vn -0.1353 -0.6581 0.7406
vn -0.1122 -0.9915 -0.0651
vn -0.2192 0.7630 -0.6081
vn -0.0051 0.5578 0.8300
vn 0.4119 -0.1020 0.9055
vn -0.6987 -0.5130 -0.4987
vn -0.5730 0.7041 -0.4194
vn 0.2215 -0.7589 0.6124
vn -0.0999 -0.3200 -0.9421
vn 0.9063 -0.0570 -0.4186
vn 0.2889 -0.6243 0.7258
vn -0.1067 -0.9920 -0.0677
vn 0.4040 0.4457 0.7988
vn 0.4114 -0.1061 0.9052
vn 0.4115 -0.1060 0.9052
vn -0.4035 -0.4488 -0.7973
vn 0.4115 -0.1059 0.9052
vn -0.4115 0.1060 -0.9052
vn -0.2900 0.6216 -0.7277
vn -0.4114 0.1061 -0.9052
vn -0.4045 -0.4426 -0.8003
vn -0.4115 0.1059 -0.9052
vn 0.1067 0.9920 0.0677
vn -0.2879 0.6270 -0.7239
vn 0.2316 -0.7617 0.6051
vn -0.0960 -0.9927 -0.0726
vn 0.3641 0.6082 0.7053
vn -0.9092 0.0216 0.4158
vn -0.9199 0.0397 0.3902
vn -0.8934 0.0315 0.4481
vn -0.8827 0.0512 0.4670
vn -0.8780 0.0501 0.4759
vn -0.9177 0.0825 0.3885
vn -0.9273 0.0627 0.3691
vn -0.9309 0.0638 0.3596
vn -0.3641 -0.6082 -0.7053
vn -0.8892 0.0751 0.4512
vn -0.9023 0.0924 0.4209
vn 0.0960 0.9927 0.0726
vn -0.2316 0.7617 -0.6051
vn -0.8956 0.0335 0.4436
vn -0.9219 0.0389 0.3853
vn 0.2879 -0.6270 0.7239
vn 0.4045 0.4426 0.8003
vn -0.4040 -0.4457 -0.7988
vn 0.2900 -0.6216 0.7277
vn -0.2889 0.6243 -0.7258
vn 0.4035 0.4488 0.7973
vn -0.9063 0.0570 0.4186
vn -0.9063 0.0570 0.4187
vn -0.9159 0.0805 0.3932
vn -0.8917 0.0743 0.4465
s 1
f 3/1/1 2/2/2 4/3/3
f 5/4/4 3/1/1 6/5/5
f 10/6/6 7/7/7 9/8/8
f 11/9/9 9/8/8 7/7/7
f 29/10/10 10/6/6 30/11/11
f 32/12/12 9/8/8 12/13/13
f 31/14/14 10/6/6 9/8/8
f 19/15/15 6/5/5 32/16/12
f 34/17/16 2/2/2 1/18/17
f 33/19/18 7/7/7 34/17/16
f 5/4/4 20/20/19 33/19/18
f 18/21/20 12/13/13 11/9/9
f 6/5/5 17/22/21 5/4/4
f 82/23/22 19/15/15 77/24/23
f 18/21/20 76/25/24 79/26/25
f 13/27/26 75/28/27 20/20/19
f 19/29/15 78/30/28 77/31/23
f 14/32/29 80/33/30 17/22/21
f 75/28/27 15/34/31 20/20/19
f 79/26/25 16/35/32 18/21/20
f 81/36/33 17/22/21 80/33/30
f 4/3/3 29/10/10 30/37/11
f 3/1/1 32/16/12 6/5/5
f 4/3/3 31/38/14 3/1/1
f 8/39/34 34/17/16 7/7/7
f 1/18/17 33/19/18 34/17/16
f 19/29/15 12/13/13 16/35/32
f 11/9/9 20/20/19 15/34/31
f 90/40/35 22/41/35 85/42/35
f 22/43/35 86/44/35 85/45/35
f 28/46/35 83/47/35 21/48/35
f 27/49/35 88/50/35 24/51/35
f 83/47/35 26/52/35 21/48/35
f 88/50/35 28/46/35 24/51/35
f 87/53/35 25/54/35 23/55/35
f 26/52/35 87/53/35 23/55/35
f 67/56/36 43/57/37 68/58/37
f 69/59/38 46/60/39 70/61/40
f 68/58/37 40/62/41 35/63/37
f 67/56/36 38/64/42 70/61/40
f 73/65/43 39/66/44 37/67/45
f 73/65/43 48/68/46 95/69/47
f 69/59/38 36/70/48 74/71/48
f 74/72/48 94/73/49 93/74/48
f 107/75/50 99/76/51 60/77/51
f 62/78/40 106/79/52 104/80/40
f 108/81/53 92/82/54 91/83/53
f 59/84/55 96/85/56 110/86/57
f 112/87/58 45/88/59 65/89/60
f 63/90/61 103/91/43 113/92/43
f 61/93/62 44/94/63 66/95/63
f 114/96/64 102/97/65 101/98/64
f 97/99/66 108/81/53 91/83/53
f 96/85/56 61/93/62 110/86/57
f 100/100/61 60/77/51 99/76/51
f 104/80/40 107/75/50 62/78/40
f 102/97/65 113/92/43 103/91/43
f 45/88/59 111/101/67 65/89/60
f 106/79/52 114/102/64 101/103/64
f 44/104/63 112/87/58 66/105/63
f 42/106/68 68/58/37 35/63/37
f 41/107/69 70/61/40 38/64/42
f 43/57/37 71/108/70 68/58/37
f 50/109/71 70/61/40 46/60/39
f 95/69/47 72/110/72 73/65/43
f 37/67/45 71/108/70 73/65/43
f 49/111/73 74/71/48 93/112/48
f 36/113/48 72/110/72 74/72/48
f 57/114/74 55/115/74 56/116/75
f 3/1/1 1/18/17 2/2/2
f 5/4/4 1/18/17 3/1/1
f 10/6/6 8/39/34 7/7/7
f 11/9/9 12/13/13 9/8/8
f 29/10/10 8/39/34 10/6/6
f 32/12/12 31/14/14 9/8/8
f 31/14/14 30/11/11 10/6/6
f 19/15/15 14/32/29 6/5/5
f 34/17/16 29/10/10 2/2/2
f 33/19/18 11/9/9 7/7/7
f 5/4/4 13/27/26 20/20/19
f 11/9/9 15/34/31 18/21/20
f 18/21/20 16/35/32 12/13/13
f 13/27/26 5/4/4 17/22/21
f 6/5/5 14/32/29 17/22/21
f 82/23/22 14/32/29 19/15/15
f 18/21/20 15/34/31 76/25/24
f 13/27/26 81/36/33 75/28/27
f 19/29/15 16/35/32 78/30/28
f 14/32/29 82/23/22 80/33/30
f 75/28/27 76/25/24 15/34/31
f 79/26/25 78/30/28 16/35/32
f 81/36/33 13/27/26 17/22/21
f 4/3/3 2/2/2 29/10/10
f 3/1/1 31/38/14 32/16/12
f 4/3/3 30/37/11 31/38/14
f 8/39/34 29/10/10 34/17/16
f 1/18/17 5/4/4 33/19/18
f 19/29/15 32/12/12 12/13/13
f 11/9/9 33/19/18 20/20/19
f 90/40/35 27/49/35 22/41/35
f 22/43/35 25/54/35 86/44/35
f 28/46/35 89/117/35 83/47/35
f 27/49/35 90/40/35 88/50/35
f 83/47/35 84/118/35 26/52/35
f 88/50/35 89/117/35 28/46/35
f 87/53/35 86/44/35 25/54/35
f 26/52/35 84/118/35 87/53/35
f 67/56/36 50/109/71 43/57/37
f 69/59/38 49/111/73 46/60/39
f 68/58/37 71/108/70 40/62/41
f 67/56/36 42/106/68 38/64/42
f 73/65/43 72/110/72 39/66/44
f 73/65/43 71/108/70 48/68/46
f 69/59/38 41/107/69 36/70/48
f 74/72/48 72/110/72 94/73/49
f 107/75/50 105/119/50 99/76/51
f 62/78/40 109/120/52 106/79/52
f 108/81/53 111/101/67 92/82/54
f 59/84/55 97/99/66 96/85/56
f 112/87/58 47/121/76 45/88/59
f 63/90/61 100/100/61 103/91/43
f 61/93/62 98/122/77 44/94/63
f 114/96/64 64/123/65 102/97/65
f 97/99/66 59/84/55 108/81/53
f 96/85/56 98/122/77 61/93/62
f 100/100/61 63/90/61 60/77/51
f 104/80/40 105/119/50 107/75/50
f 102/97/65 64/123/65 113/92/43
f 45/88/59 92/82/54 111/101/67
f 106/79/52 109/120/52 114/102/64
f 44/104/63 47/121/76 112/87/58
f 42/106/68 67/56/36 68/58/37
f 41/107/69 69/59/38 70/61/40
f 43/57/37 48/68/46 71/108/70
f 50/109/71 67/56/36 70/61/40
f 95/69/47 94/73/49 72/110/72
f 37/67/45 40/62/41 71/108/70
f 49/111/73 69/59/38 74/71/48
f 36/113/48 39/66/44 72/110/72
f 56/116/75 51/124/74 57/114/74
f 58/125/74 54/126/74 57/114/74
f 57/114/74 52/127/74 55/115/74
f 55/115/74 53/128/75 56/116/75
f 51/124/74 58/125/74 57/114/74
