# Blender v2.78 (sub 0) OBJ File: 'wioslo.blend'
# www.blender.org
v 2.425809 -0.034318 0.770487
v 3.283257 -0.021758 1.089233
v 2.428260 0.115814 0.757977
v 3.285708 0.128374 1.076722
v 2.388329 -0.004189 0.754505
v 2.389781 0.084689 0.747099
v 2.404301 -0.028552 0.835458
v 3.271851 -0.018701 1.123687
v 2.406752 0.121580 0.822948
v 3.274302 0.131431 1.111176
v 2.366287 0.001719 0.821089
v 2.367738 0.090597 0.813682
v 2.357049 0.021166 0.755881
v 2.357699 0.060938 0.752567
v 2.343291 0.024854 0.797442
v 2.343940 0.064626 0.794128
v 2.359789 0.040405 0.746929
v 2.341200 0.045387 0.803080
v 2.350978 0.072469 0.772540
v 2.350012 0.013323 0.777469
v 0.622927 0.026488 0.204552
v 0.623892 0.085634 0.199623
v 0.614115 0.058552 0.230164
v 0.632704 0.053570 0.174012
v 0.616855 0.077791 0.221211
v 0.616206 0.038019 0.224525
v 0.630614 0.074103 0.179650
v 0.629964 0.034331 0.182965
v 3.291994 -0.031598 1.112357
v 3.294823 0.141618 1.097923
v 2.417695 0.130239 0.789500
v 2.378871 0.094475 0.779821
v 2.377196 -0.008068 0.788367
v 2.414866 -0.042977 0.803935
v 0.622441 -0.003260 0.207031
v 0.624378 0.115382 0.197144
v 0.609797 0.059710 0.243207
v 0.637022 0.052412 0.160968
v 0.610262 0.099650 0.240448
v 0.608959 0.019870 0.247096
v 0.637861 0.092252 0.157080
v 0.636558 0.012472 0.163728
v -0.416857 -0.002051 -0.137133
v -0.414919 0.116592 -0.147020
v -0.429500 0.060919 -0.100957
v -0.402276 0.053622 -0.183196
v -0.429036 0.100860 -0.103716
v -0.430339 0.021079 -0.097069
v -0.401437 0.093462 -0.187085
v -0.402740 0.013681 -0.180437
v -0.919109 0.028198 -0.306087
v -0.918343 0.075106 -0.309996
v -0.926098 0.053628 -0.285775
v -0.911355 0.049676 -0.330309
v -0.923925 0.068886 -0.292876
v -0.924440 0.037343 -0.290247
v -0.913013 0.065961 -0.325837
v -0.913528 0.034418 -0.323208
v -0.411908 0.040035 -0.157646
v -0.417489 0.033815 -0.140525
v -0.411393 0.071577 -0.160275
v -0.409735 0.055292 -0.164746
v -0.422820 0.042960 -0.124685
v -0.422304 0.074502 -0.127314
v -0.424478 0.059244 -0.120213
v -0.416723 0.080722 -0.144434
v -0.002047 0.013215 -0.047747
v -0.016164 -0.002517 -0.004443
v -0.000744 0.092995 -0.054395
v -0.001582 0.053155 -0.050506
v -0.029646 0.020613 0.035621
v -0.028343 0.100393 0.028973
v -0.028807 0.060453 0.031732
v -0.014226 0.116126 -0.014330
v 0.622927 0.026488 0.204552
v 0.616206 0.038019 0.224525
v 0.623892 0.085634 0.199623
v 0.616855 0.077791 0.221211
v 0.614115 0.058552 0.230164
v 0.632704 0.053570 0.174012
v 0.629964 0.034331 0.182965
v 0.630614 0.074103 0.179650
v 0.622441 -0.003260 0.207031
v 0.608959 0.019870 0.247096
v 0.624378 0.115382 0.197144
v 0.610262 0.099650 0.240448
v 0.609797 0.059710 0.243207
v 0.637022 0.052412 0.160968
v 0.636558 0.012472 0.163728
v 0.637861 0.092252 0.157080
v -0.416857 -0.002051 -0.137133
v -0.430339 0.021079 -0.097069
v -0.414919 0.116592 -0.147020
v -0.429036 0.100860 -0.103716
v -0.429500 0.060919 -0.100957
v -0.402276 0.053622 -0.183196
v -0.402740 0.013681 -0.180437
v -0.401437 0.093462 -0.187085
v -0.919109 0.028198 -0.306087
v -0.924440 0.037343 -0.290247
v -0.918343 0.075106 -0.309996
v -0.923925 0.068886 -0.292876
v -0.926098 0.053628 -0.285775
v -0.911355 0.049676 -0.330309
v -0.913528 0.034418 -0.323208
v -0.913013 0.065961 -0.325837
v -0.411908 0.040035 -0.157646
v -0.417489 0.033815 -0.140525
v -0.411393 0.071577 -0.160275
v -0.409735 0.055292 -0.164746
v -0.422820 0.042960 -0.124685
v -0.422304 0.074502 -0.127314
v -0.424478 0.059244 -0.120213
v -0.416723 0.080722 -0.144434
vt 0.1786 0.3799
vt 0.0175 0.3455
vt 0.1880 0.3521
vt 0.1918 0.3792
vt 0.1986 0.3593
vt 0.0181 0.4302
vt 0.1786 0.3942
vt 0.1886 0.4221
vt 0.1919 0.3948
vt 0.0000 0.3880
vt 0.0097 0.4400
vt 0.2072 0.4218
vt 0.1991 0.4146
vt 0.1917 0.4333
vt 0.2147 0.3707
vt 0.2066 0.3520
vt 0.1769 0.3870
vt 0.0132 0.3736
vt 0.1917 0.3870
vt 0.2062 0.3862
vt 0.2083 0.3948
vt 0.2080 0.3777
vt 0.5734 0.3732
vt 0.5703 0.3695
vt 0.5738 0.3904
vt 0.5756 0.3948
vt 0.2059 0.3815
vt 0.5756 0.3860
vt 0.2153 0.4017
vt 0.5738 0.3988
vt 0.5708 0.4025
vt 0.2110 0.3743
vt 0.5754 0.3772
vt 0.2060 0.3910
vt 0.2114 0.3981
vt 0.5737 0.3816
vt 0.0088 0.3360
vt 0.1907 0.3409
vt 0.0134 0.4025
vt 0.5830 0.3607
vt 0.5703 0.3695
vt 0.5787 0.3502
vt 0.5738 0.3988
vt 0.5793 0.4214
vt 0.5708 0.4025
vt 0.5737 0.3816
vt 0.5848 0.3858
vt 0.5756 0.3860
vt 0.5734 0.3732
vt 0.5805 0.3695
vt 0.5754 0.3772
vt 0.5738 0.3904
vt 0.5808 0.4021
vt 0.5756 0.3948
vt 0.7401 0.3750
vt 0.8413 0.3849
vt 0.7398 0.3853
vt 0.7412 0.3553
vt 0.8462 0.3697
vt 0.7407 0.3652
vt 0.5850 0.3936
vt 0.5848 0.3858
vt 0.5805 0.3695
vt 0.7410 0.4054
vt 0.5835 0.4109
vt 0.5808 0.4021
vt 0.8418 0.3928
vt 0.8465 0.4000
vt 0.5787 0.3502
vt 0.7418 0.3450
vt 0.7425 0.4256
vt 0.8460 0.4089
vt 0.8516 0.4179
vt 0.8565 0.3847
vt 0.9995 0.3805
vt 0.9993 0.3839
vt 0.8544 0.3757
vt 0.9992 0.3737
vt 0.9992 0.3771
vt 0.8565 0.3847
vt 0.8418 0.3928
vt 0.8413 0.3849
vt 0.8551 0.3802
vt 0.8462 0.3697
vt 0.8544 0.3757
vt 0.8577 0.3974
vt 0.8465 0.4000
vt 0.8546 0.3936
vt 0.8551 0.3892
vt 0.9993 0.3907
vt 0.8546 0.3936
vt 0.8572 0.3719
vt 0.8511 0.3518
vt 0.8595 0.3681
vt 0.8600 0.4012
vt 0.9995 0.3942
vt 1.0000 0.3976
vt 0.8417 0.3770
vt 0.8551 0.3802
vt 0.8551 0.3892
vt 1.0000 0.3698
vt 0.8572 0.3719
vt 0.8595 0.3681
vt 0.8516 0.4179
vt 0.8600 0.4012
vt 0.5848 0.3780
vt 0.5830 0.3607
vt 0.7402 0.3956
vt 0.8417 0.3770
vt 0.7417 0.4153
vt 0.8455 0.3608
vt 0.8511 0.3518
vt 0.5793 0.4214
vt 0.0000 0.4430
vt 0.0068 0.4400
vt 0.0095 0.4462
vt 0.5835 0.4109
vt 0.5848 0.3780
vt 0.5850 0.3936
vt 0.8460 0.4089
vt 0.9992 0.3873
vt 0.8455 0.3608
vt 0.8577 0.3974
vt 0.0068 0.4492
vt 0.0027 0.4492
vt 0.0002 0.4467
vt 0.0027 0.4400
vt 0.0093 0.4426
vn -0.0084 0.6859 0.7276
vn -0.5981 -0.3239 0.7331
vn -0.0287 -0.5554 0.8310
vn 0.1752 0.5489 0.8173
vn 0.1595 -0.4115 0.8973
vn -0.0430 -0.4698 -0.8817
vn 0.4732 0.5617 -0.6786
vn 0.4529 -0.6813 -0.5751
vn 0.6540 0.4206 -0.6288
vn -0.6796 0.6739 -0.2897
vn -0.7019 -0.6901 -0.1760
vn 0.5706 -0.7796 0.2581
vn 0.6383 -0.5398 -0.5488
vn 0.2960 -0.9374 0.1835
vn 0.3529 -0.9145 0.1980
vn 0.3267 0.9447 0.0267
vn -0.5853 0.4599 0.6677
vn 0.5963 0.7926 0.1270
vn 0.3981 0.9160 0.0505
vn 0.4993 -0.0781 -0.8628
vn -0.1139 0.0863 0.9897
vn -0.2490 -0.6293 0.7362
vn -0.0333 -0.9964 0.0774
vn 0.2502 0.6243 -0.7400
vn 0.3130 -0.0880 -0.9456
vn 0.1709 0.6720 0.7205
vn 0.0333 0.9964 -0.0774
vn 0.2029 -0.7504 -0.6290
vn 0.1385 -0.5493 0.8241
vn -0.3133 0.0798 0.9463
vn 0.5996 0.5571 -0.5745
vn 0.5707 -0.6652 -0.4815
vn -0.2044 0.7462 0.6335
vn -0.0301 0.3186 -0.9474
vn -0.9496 -0.0106 -0.3134
vn -0.2489 0.6081 0.7538
vn 0.0274 0.9965 -0.0793
vn -0.2785 -0.4667 0.8394
vn -0.3132 0.0840 0.9460
vn -0.3132 0.0839 0.9460
vn 0.2780 0.4698 -0.8378
vn -0.3132 0.0838 0.9460
vn 0.3132 -0.0839 -0.9460
vn 0.2496 -0.6053 -0.7558
vn 0.3132 -0.0840 -0.9460
vn 0.2790 0.4636 -0.8409
vn 0.3132 -0.0838 -0.9460
vn -0.0274 -0.9965 0.0793
vn 0.2482 -0.6109 -0.7518
vn 0.0162 0.9964 -0.0830
vn -0.2155 0.7483 0.6274
vn -0.2379 -0.6267 0.7420
vn 0.9495 0.0461 0.3103
vn 0.9585 0.0286 0.2836
vn 0.9383 0.0354 0.3441
vn 0.9312 0.0151 0.3641
vn 0.9275 0.0160 0.3735
vn 0.9593 -0.0142 0.2821
vn 0.9651 0.0060 0.2618
vn 0.9677 0.0052 0.2520
vn 0.2379 0.6267 -0.7420
vn 0.9375 -0.0084 0.3478
vn 0.9484 -0.0249 0.3161
vn -0.0162 -0.9964 0.0830
vn 0.2155 -0.7483 -0.6274
vn 0.9400 0.0335 0.3394
vn 0.9600 0.0295 0.2785
vn -0.2482 0.6109 0.7518
vn -0.2790 -0.4636 0.8409
vn 0.2785 0.4667 -0.8394
vn -0.2496 0.6053 0.7558
vn 0.2489 -0.6081 -0.7538
vn -0.2780 -0.4698 0.8378
vn 0.9496 0.0106 0.3134
vn 0.9578 -0.0123 0.2870
vn 0.9394 -0.0074 0.3428
s 1
f 1/1/1 4/2/2 3/3/3
f 5/4/4 3/3/3 6/5/5
f 10/6/6 7/7/7 9/8/8
f 11/9/9 9/8/8 7/7/7
f 29/10/10 10/6/6 30/11/11
f 32/12/12 9/8/8 12/13/13
f 31/14/14 10/6/6 9/8/8
f 19/15/15 6/5/5 32/16/12
f 34/17/16 2/18/17 1/1/1
f 33/19/18 7/7/7 34/17/16
f 5/4/4 20/20/19 33/19/18
f 18/21/20 12/13/13 11/9/9
f 6/5/5 17/22/21 5/4/4
f 82/23/22 19/15/15 77/24/23
f 18/21/20 76/25/24 79/26/25
f 13/27/26 75/28/27 20/20/19
f 19/29/15 78/30/28 77/31/23
f 14/32/29 80/33/30 17/22/21
f 75/28/27 15/34/31 20/20/19
f 79/26/25 16/35/32 18/21/20
f 81/36/33 17/22/21 80/33/30
f 4/2/2 29/10/10 30/37/11
f 3/3/3 32/16/12 6/5/5
f 4/2/2 31/38/14 3/3/3
f 8/39/34 34/17/16 7/7/7
f 1/1/1 33/19/18 34/17/16
f 19/29/15 12/13/13 16/35/32
f 11/9/9 20/20/19 15/34/31
f 90/40/35 22/41/35 85/42/35
f 25/43/35 85/44/35 22/45/35
f 28/46/35 83/47/35 21/48/35
f 27/49/35 88/50/35 24/51/35
f 83/47/35 26/52/35 21/48/35
f 88/50/35 28/46/35 24/51/35
f 87/53/35 25/43/35 23/54/35
f 26/52/35 87/53/35 23/54/35
f 67/55/36 43/56/37 68/57/37
f 69/58/38 46/59/39 70/60/40
f 68/57/37 40/61/41 35/62/37
f 67/55/36 38/63/42 70/60/40
f 73/64/43 39/65/44 37/66/45
f 73/64/43 48/67/46 95/68/47
f 69/58/38 36/69/48 74/70/48
f 74/71/48 94/72/49 93/73/48
f 60/74/50 105/75/51 99/76/50
f 62/77/40 106/78/52 104/79/40
f 108/80/53 92/81/54 91/82/53
f 59/83/55 96/84/56 110/85/57
f 112/86/58 45/87/59 65/88/60
f 63/89/61 103/90/43 113/91/43
f 61/92/62 44/93/63 66/94/63
f 114/95/64 102/96/65 101/97/64
f 97/98/66 108/80/53 91/82/53
f 96/84/56 61/92/62 110/85/57
f 99/76/50 63/89/61 60/74/50
f 104/79/40 107/99/51 62/77/40
f 102/96/65 113/91/43 103/90/43
f 45/87/59 111/100/67 65/88/60
f 101/101/64 109/102/52 114/103/64
f 44/104/63 112/86/58 66/105/63
f 42/106/68 68/57/37 35/62/37
f 41/107/69 70/60/40 38/63/42
f 43/56/37 71/108/70 68/57/37
f 50/109/71 70/60/40 46/59/39
f 95/68/47 72/110/72 73/64/43
f 37/66/45 71/108/70 73/64/43
f 49/111/73 74/70/48 93/112/48
f 36/113/48 72/110/72 74/71/48
f 57/114/74 55/115/74 56/116/74
f 1/1/1 2/18/17 4/2/2
f 5/4/4 1/1/1 3/3/3
f 10/6/6 8/39/34 7/7/7
f 11/9/9 12/13/13 9/8/8
f 29/10/10 8/39/34 10/6/6
f 32/12/12 31/14/14 9/8/8
f 31/14/14 30/11/11 10/6/6
f 19/15/15 14/32/29 6/5/5
f 34/17/16 29/10/10 2/18/17
f 33/19/18 11/9/9 7/7/7
f 5/4/4 13/27/26 20/20/19
f 11/9/9 15/34/31 18/21/20
f 18/21/20 16/35/32 12/13/13
f 13/27/26 5/4/4 17/22/21
f 6/5/5 14/32/29 17/22/21
f 82/23/22 14/32/29 19/15/15
f 18/21/20 15/34/31 76/25/24
f 13/27/26 81/36/33 75/28/27
f 19/29/15 16/35/32 78/30/28
f 14/32/29 82/23/22 80/33/30
f 75/28/27 76/25/24 15/34/31
f 79/26/25 78/30/28 16/35/32
f 81/36/33 13/27/26 17/22/21
f 4/2/2 2/18/17 29/10/10
f 3/3/3 31/38/14 32/16/12
f 4/2/2 30/37/11 31/38/14
f 8/39/34 29/10/10 34/17/16
f 1/1/1 5/4/4 33/19/18
f 19/29/15 32/12/12 12/13/13
f 11/9/9 33/19/18 20/20/19
f 90/40/35 27/49/35 22/41/35
f 25/43/35 86/117/35 85/44/35
f 28/46/35 89/118/35 83/47/35
f 27/49/35 90/40/35 88/50/35
f 83/47/35 84/119/35 26/52/35
f 88/50/35 89/118/35 28/46/35
f 87/53/35 86/117/35 25/43/35
f 26/52/35 84/119/35 87/53/35
f 67/55/36 50/109/71 43/56/37
f 69/58/38 49/111/73 46/59/39
f 68/57/37 71/108/70 40/61/41
f 67/55/36 42/106/68 38/63/42
f 73/64/43 72/110/72 39/65/44
f 73/64/43 71/108/70 48/67/46
f 69/58/38 41/107/69 36/69/48
f 74/71/48 72/110/72 94/72/49
f 60/74/50 107/99/51 105/75/51
f 62/77/40 109/102/52 106/78/52
f 108/80/53 111/100/67 92/81/54
f 59/83/55 97/98/66 96/84/56
f 112/86/58 47/120/75 45/87/59
f 63/89/61 100/121/61 103/90/43
f 61/92/62 98/122/76 44/93/63
f 114/95/64 64/123/65 102/96/65
f 97/98/66 59/83/55 108/80/53
f 96/84/56 98/122/76 61/92/62
f 99/76/50 100/121/61 63/89/61
f 104/79/40 105/75/51 107/99/51
f 102/96/65 64/123/65 113/91/43
f 45/87/59 92/81/54 111/100/67
f 101/101/64 106/78/52 109/102/52
f 44/104/63 47/120/75 112/86/58
f 42/106/68 67/55/36 68/57/37
f 41/107/69 69/58/38 70/60/40
f 43/56/37 48/67/46 71/108/70
f 50/109/71 67/55/36 70/60/40
f 95/68/47 94/72/49 72/110/72
f 37/66/45 40/61/41 71/108/70
f 49/111/73 69/58/38 74/70/48
f 36/113/48 39/65/44 72/110/72
f 56/116/74 51/124/74 58/125/74
f 58/125/74 54/126/74 57/114/74
f 57/114/74 52/127/74 55/115/74
f 55/115/74 53/128/74 56/116/74
f 56/116/74 58/125/74 57/114/74
